<svg xmlns="http://www.w3.org/2000/svg" xmlns:svg="http://www.w3.org/2000/svg" id="bbea868e-8a71-493f-b725-c934b9a84f18" width="17.01" height="16.072" version="1.1" viewBox="0 0 17.01 16.072"><defs id="defs43989"><radialGradient id="a81c9c09-6274-4ca3-a4e1-ccea67c24c15" cx="-3179.5" cy="28295.77" r="40.52" gradientTransform="matrix(0.13,0,0,0.13,435.23001,-3786.1304)" gradientUnits="userSpaceOnUse"><stop id="stop43972" offset=".18" stop-color="#5ea0ef"/><stop id="stop43974" offset=".56" stop-color="#5c9fee"/><stop id="stop43976" offset=".69" stop-color="#559ced"/><stop id="stop43978" offset=".78" stop-color="#4a97e9"/><stop id="stop43980" offset=".86" stop-color="#3990e4"/><stop id="stop43982" offset=".93" stop-color="#2387de"/><stop id="stop43984" offset=".99" stop-color="#087bd6"/><stop id="stop43986" offset="1" stop-color="#0078d4"/></radialGradient></defs><title id="title43991">Icon-manage-308</title><circle id="circle43993" cx="8.89" cy="8.05" r="5.43" fill="url(#a81c9c09-6274-4ca3-a4e1-ccea67c24c15)" style="fill:url(#a81c9c09-6274-4ca3-a4e1-ccea67c24c15)"/><circle id="circle43995" cx="8.91" cy="8.05" r="4.73" fill="#fff"/><rect id="b42eed36-9db4-477b-a93a-b71dd9eafb01" width=".81" height=".26" x="3.855" y="11.862" fill="#7a7a7a" transform="rotate(-45)"/><rect id="ad8c6ead-147d-43b2-a109-456e78be7081" width=".81" height=".26" x="12.12" y="7.92" fill="#7a7a7a"/><rect id="fe21f182-2c9c-417d-b5d9-d14559b34877" width=".26" height=".81" x=".478" y="15.174" fill="#7a7a7a" transform="rotate(-45)"/><rect id="ac180879-4dfd-4584-a8aa-5ef507fe43af" width=".26" height=".81" x="8.78" y="11.24" fill="#7a7a7a"/><rect id="b4e17954-3f15-4e0f-a45d-bd11f26be64c" width=".26" height=".81" x=".479" y="7.906" fill="#7a7a7a" transform="rotate(-45)"/><rect id="aa99a954-37ab-43d9-b437-1be309bf32b2" width=".81" height=".26" x="-3.424" y="11.861" fill="#7a7a7a" transform="rotate(-45)"/><rect id="a6cfd9f5-a8af-49cb-b4d2-8cb476152496" width=".81" height=".26" x="4.85" y="7.92" fill="#7a7a7a"/><path id="path44004" fill="#7a7a7a" d="m 10.870006,9.5095512 -1.3699996,-1.38 a 0.3,0.3 0 0 0 -0.25,-0.08 0.44,0.44 0 0 0 0.06,-0.16 v -3.51 a 0.33,0.33 0 0 0 -0.33,-0.33 h -0.07 a 0.33,0.33 0 0 0 -0.33,0.33 v 3.5 a 0.34,0.34 0 0 0 0.33,0.34 h 0.05 a 0.32,0.32 0 0 0 0,0.43 l 1.3899996,1.3999998 a 0.33,0.33 0 0 0 0.47,0 v 0 a 0.33,0.33 0 0 0 0.05,-0.5399998 z"/><circle id="circle44006" cx="8.92" cy="8.05" r=".77" fill="#4f4f4f"/><path id="path44008" fill="#949494" d="m 6.4104276e-6,14.129551 a 0.16,0.16 0 0 0 0.079999999572,0.14 l 1.15999999,0.65 1.96,1.13 a 0.17,0.17 0 0 0 0.23,-0.06 l 0.66,-1.12 a 0.16,0.16 0 0 0 -0.06,-0.21 l -2.3,-1.3 a 0.17,0.17 0 0 1 -0.08,-0.14 V 2.8995512 a 0.16,0.16 0 0 1 0.08,-0.14 l 2.3,-1.3 a 0.16,0.16 0 0 0 0.06,-0.21 l -0.66,-1.11999997 a 0.17,0.17 0 0 0 -0.23,-0.08 l -1.92,1.10999997 -1.19999999,0.67 a 0.16,0.16 0 0 0 -0.079999999572,0.14 z"/><path id="path44010" fill="#a3a3a3" d="m 1.6400064,2.8195512 0.06,-0.06 2.3,-1.3 a 0.14,0.14 0 0 0 0.06,-0.21 l -0.66,-1.11999997 a 0.15,0.15 0 0 0 -0.22,-0.08 l -1.93,1.10999997 -1.18999999,0.67 c 0,0 -0.05,0 -0.059999999572,0.06 l 0.8999999995724,0.51 z"/><path id="path44012" fill="#a3a3a3" d="m 4.0000064,14.639551 -2.3,-1.3 a 0.22,0.22 0 0 1 -0.07,-0.09 l -1.61999999,1 h 0.05 l 1.14999999,0.65 2,1.11 a 0.15,0.15 0 0 0 0.22,-0.06 l 0.66,-1.12 a 0.14,0.14 0 0 0 -0.09,-0.19 z"/><path id="path44016" fill="#949494" d="m 17.010006,14.129551 a 0.16,0.16 0 0 1 -0.08,0.14 l -1.16,0.65 -2,1.11 a 0.15,0.15 0 0 1 -0.22,-0.06 l -0.66,-1.12 a 0.15,0.15 0 0 1 0.05,-0.21 l 2.3,-1.3 a 0.17,0.17 0 0 0 0.08,-0.14 V 2.8995512 a 0.16,0.16 0 0 0 -0.08,-0.14 l -2.3,-1.3 a 0.15,0.15 0 0 1 -0.05,-0.21 l 0.66,-1.11999997 a 0.15,0.15 0 0 1 0.26,-0.08 l 1.92,1.08999997 1.2,0.67 a 0.16,0.16 0 0 1 0.08,0.14 z"/><path id="path44018" fill="#a3a3a3" d="m 15.370006,2.8195512 -0.06,-0.06 -2.3,-1.3 a 0.14,0.14 0 0 1 -0.06,-0.21 l 0.66,-1.11999997 a 0.15,0.15 0 0 1 0.22,-0.08 l 1.93,1.08999997 1.19,0.67 c 0,0 0.05,0 0.06,0.06 l -0.9,0.51 z"/><path id="path44020" fill="#a3a3a3" d="m 13.010006,14.639551 2.3,-1.3 a 0.16,0.16 0 0 0 0.07,-0.09 l 1.62,1 h -0.05 l -1.15,0.65 -2,1.11 a 0.15,0.15 0 0 1 -0.22,-0.06 l -0.66,-1.12 a 0.14,0.14 0 0 1 0.09,-0.19 z"/><path id="path44024" fill="#76bc2d" d="m 7.4400064,2.3995512 v 0 a 0.49,0.49 0 0 0 -0.64,-0.3 6.56,6.56 0 0 0 -4.3,6.19 6.13,6.13 0 0 0 2,4.3499998 l -0.34,0.46 a 0.21,0.21 0 0 0 0.16,0.34 l 1.88,0.13 a 0.22,0.22 0 0 0 0.23,-0.31 l -0.79,-1.64 a 0.23,0.23 0 0 0 -0.39,0 l -0.19,0.26 a 5.23,5.23 0 0 1 -1.56,-3.6299998 5.58,5.58 0 0 1 3.65,-5.28 0.47,0.47 0 0 0 0.29,-0.57 z"/><metadata id="metadata44109"/></svg>