<svg xmlns="http://www.w3.org/2000/svg" xmlns:v="https://vecta.io/nano" width="96" height="96" fill="none"><style>.B{color-interpolation-filters:sRGB}.C{flood-opacity:0}.D{fill-rule:evenodd}</style><g clip-path="url(#J)"><mask id="A" width="96" height="96" x="0" y="0" mask-type="alpha" maskUnits="userSpaceOnUse"><path fill="url(#G)" d="M95.68 53.57c.211-1.827.32-3.686.32-5.569C96 21.49 74.51 0 48 0a48.51 48.51 0 0 0-5.569.32A4 4 0 0 0 40 4v8.047C17.733 13.091 0 31.475 0 54c0 23.196 18.804 42 42 42 22.525 0 40.909-17.733 41.953-40H92a4 4 0 0 0 3.68-2.431z"/></mask><g mask="url(#A)"><circle cx="42" cy="54" r="42" fill="url(#H)"/><g filter="url(#C)"><path fill="#000" fill-opacity=".32" d="M95.68 55.57c.211-1.827.32-3.686.32-5.569C96 23.49 74.51 2 48 2a48.51 48.51 0 0 0-5.569.32A4 4 0 0 0 40 6v52h52a4 4 0 0 0 3.68-2.431z"/></g><g filter="url(#D)"><path fill="#000" fill-opacity=".24" d="M95.68 53.95c.211-1.827.32-3.686.32-5.569 0-26.51-21.49-48-48-48a48.51 48.51 0 0 0-5.569.32A4 4 0 0 0 40 4.38v52h52a4 4 0 0 0 3.68-2.431z"/></g><path fill="url(#I)" d="M95.68 53.57c.211-1.827.32-3.686.32-5.569C96 21.49 74.51 0 48 0a48.51 48.51 0 0 0-5.569.32A4 4 0 0 0 40 4v52h52a4 4 0 0 0 3.68-2.431z" class="D"/><mask id="B" width="56" height="56" x="40" y="0" mask-type="alpha" maskUnits="userSpaceOnUse"><path fill="url(#I)" d="M95.68 53.57c.211-1.827.32-3.686.32-5.569C96 21.49 74.51 0 48 0a48.51 48.51 0 0 0-5.569.32A4 4 0 0 0 40 4v52h52a4 4 0 0 0 3.68-2.431z" class="D"/></mask><g mask="url(#B)"><g filter="url(#E)"><path fill="#000" fill-opacity=".32" d="M40 32h22a4 4 0 0 1 4 4v22H40V32z"/></g><g filter="url(#F)"><path fill="#000" fill-opacity=".24" d="M40 30.38h22a4 4 0 0 1 4 4v22H40v-26z"/></g><path fill="url(#G)" d="M40 30h22a4 4 0 0 1 4 4v22H40V30z"/></g></g></g><defs><filter id="C" width="72" height="72" x="32" y="-6" class="B" filterUnits="userSpaceOnUse"><feFlood class="C"/><feBlend in="SourceGraphic"/><feGaussianBlur stdDeviation="4"/></filter><filter id="D" width="57.52" height="57.52" x="39.24" y="-.38" class="B" filterUnits="userSpaceOnUse"><feFlood class="C"/><feBlend in="SourceGraphic"/><feGaussianBlur stdDeviation=".38"/></filter><filter id="E" width="42" height="42" x="32" y="24" class="B" filterUnits="userSpaceOnUse"><feFlood class="C"/><feBlend in="SourceGraphic"/><feGaussianBlur stdDeviation="4"/></filter><filter id="F" width="27.52" height="27.52" x="39.24" y="29.62" class="B" filterUnits="userSpaceOnUse"><feFlood class="C"/><feBlend in="SourceGraphic"/><feGaussianBlur stdDeviation=".38"/></filter><linearGradient id="G" x1="41.9" x2="52.919" y1="30.211" y2="58.03" gradientUnits="userSpaceOnUse"><stop stop-color="#a7f2ff"/><stop offset="1" stop-color="#7cecff"/></linearGradient><linearGradient id="H" x1="30.835" x2="58.901" y1="40.353" y2="92.758" gradientUnits="userSpaceOnUse"><stop stop-color="#0078d4"/><stop offset="1" stop-color="#2064ae"/></linearGradient><linearGradient id="I" x1="56" x2="109.184" y1="9.5" y2="57.733" gradientUnits="userSpaceOnUse"><stop stop-color="#40c4f5"/><stop offset="1" stop-color="#0095e6"/></linearGradient><clipPath id="J"><path fill="#fff" d="M0 0h96v96H0z"/></clipPath></defs></svg>