<svg xmlns="http://www.w3.org/2000/svg" xmlns:svg="http://www.w3.org/2000/svg" id="svg35187" width="18" height="18.04" version="1.1" viewBox="0 0 18 18.04"><defs id="defs35174"><linearGradient id="ba6b54e9-66d7-42e0-a289-95171eaf47f3" x1="9" x2="9" y1="1.796" y2="6.371" gradientTransform="translate(0,0.02)" gradientUnits="userSpaceOnUse"><stop id="stop35159" offset="0" stop-color="#9cebff"/><stop id="stop35161" offset="1" stop-color="#50e6ff"/></linearGradient><linearGradient id="e5c23c93-889c-4cfe-8adf-72bfa2a5b6e4" x1="3.374" x2="3.374" y1="12.14" y2="18.457" gradientTransform="translate(0,0.02)" gradientUnits="userSpaceOnUse"><stop id="stop35164" offset=".001" stop-color="#b4ec36"/><stop id="stop35166" offset="1" stop-color="#86d633"/></linearGradient><linearGradient id="fb46250a-f4a9-418f-b6ae-1a568665f153" x1="14.626" x2="14.626" y1="12.14" y2="18.457" gradientTransform="rotate(-90,0.01,-0.01)" gradientUnits="userSpaceOnUse"><stop id="stop35169" offset=".001" stop-color="#b4ec36"/><stop id="stop35171" offset="1" stop-color="#86d633"/></linearGradient></defs><path id="path35176" fill="#0078d4" d="M 13.851,9.067 H 10.939 A 1.518,1.518 0 0 1 9.421,7.549 V 4.35 H 8.579 v 3.2 A 1.518,1.518 0 0 1 7.061,9.067 H 4.149 a 1.2,1.2 0 0 0 -1.2,1.2 v 2.338 H 3.79 V 10.264 A 0.355,0.355 0 0 1 4.146,9.909 H 7.061 A 2.353,2.353 0 0 0 8.8,9.145 a 0.278,0.278 0 0 1 0.408,0 2.353,2.353 0 0 0 1.735,0.764 h 2.912 a 0.354,0.354 0 0 1 0.355,0.355 v 2.338 h 0.841 v -2.338 a 1.2,1.2 0 0 0 -1.2,-1.197 z"/><rect id="rect35178" width="6.747" height="6.747" x="5.626" y="0" fill="url(#ba6b54e9-66d7-42e0-a289-95171eaf47f3)" rx=".604" style="fill:url(#ba6b54e9-66d7-42e0-a289-95171eaf47f3)"/><rect id="rect35180" width="6.747" height="6.747" x="0" y="11.293" fill="url(#e5c23c93-889c-4cfe-8adf-72bfa2a5b6e4)" rx=".604" style="fill:url(#e5c23c93-889c-4cfe-8adf-72bfa2a5b6e4)"/><rect id="rect35182" width="6.747" height="6.747" x="11.293" y="-18" fill="url(#fb46250a-f4a9-418f-b6ae-1a568665f153)" rx=".604" transform="rotate(90)" style="fill:url(#fb46250a-f4a9-418f-b6ae-1a568665f153)"/></svg>