<svg xmlns="http://www.w3.org/2000/svg" xmlns:svg="http://www.w3.org/2000/svg" id="b8d4ff6d-c1e7-4878-8e1b-24a12cad15e1" width="17" height="17.652" version="1.1" viewBox="0 0 17 17.652"><defs id="defs72224"><linearGradient id="fdda967e-7651-4c84-9759-7be8308e5f44" x1="9" x2="9" y1="17.826" y2=".826" gradientTransform="translate(0.5,0.17399974)" gradientUnits="userSpaceOnUse"><stop id="stop72212" offset="0" stop-color="#198ab3"/><stop id="stop72214" offset=".442" stop-color="#28b7db"/><stop id="stop72216" offset=".775" stop-color="#32d4f5"/></linearGradient><linearGradient id="a71b08ef-312b-4529-8bf0-fa396a725f2f" x1="5.75" x2="12.303" y1="-3114.591" y2="-3119.908" gradientTransform="translate(0.5,0.17399974)" gradientUnits="userSpaceOnUse"><stop id="stop72219" offset="0" stop-color="#fff" stop-opacity=".9"/><stop id="stop72221" offset="1" stop-color="#fff" stop-opacity=".8"/></linearGradient></defs><g id="g72250" transform="translate(-0.5,-0.17399974)"><circle id="circle72226" cx="9" cy="9.326" r="8.5" style="fill:url(#fdda967e-7651-4c84-9759-7be8308e5f44)"/><path id="path72228" d="M 8.81,15.067 C 7.837,14.467 4.659,12.32 4.659,9.812 V 6.605 L 5,6.584 A 4.044,4.044 0 0 0 7.35,5.842 2.48,2.48 0 0 1 9,5.353 2.511,2.511 0 0 1 10.648,5.84 4.048,4.048 0 0 0 13,6.584 l 0.34,0.021 v 3.207 c 0,2.508 -3.178,4.656 -4.152,5.255 L 9,15.183 Z" style="fill:url(#a71b08ef-312b-4529-8bf0-fa396a725f2f)"/><path id="path72230" d="M 9,14.643 C 7.114,13.472 5.119,11.6 5.119,9.812 V 7.037 A 4.446,4.446 0 0 0 7.605,6.225 2.027,2.027 0 0 1 9,5.813 a 2.073,2.073 0 0 1 1.394,0.411 4.456,4.456 0 0 0 2.487,0.813 v 2.775 c 0,1.788 -1.995,3.66 -3.881,4.831 z" style="fill:#50e6ff"/><g id="g72236"><circle id="circle72232" cx="15.345" cy="14.083" r="1.302" style="fill:#fff"/><path id="path72234" d="m 15.345,12.781 a 1.3,1.3 0 1 1 -1.3,1.3 1.3,1.3 0 0 1 1.3,-1.3 m 0,-0.651 A 1.954,1.954 0 1 0 17.3,14.083 1.956,1.956 0 0 0 15.347,12.13 Z" style="fill:#b3b3b3"/></g><g id="g72242"><circle id="circle72238" cx="2.655" cy="14.083" r="1.302" style="fill:#fff"/><path id="path72240" d="m 2.655,12.781 a 1.3,1.3 0 1 1 -1.3,1.3 1.3,1.3 0 0 1 1.3,-1.3 m 0,-0.651 A 1.954,1.954 0 1 0 4.608,14.083 1.955,1.955 0 0 0 2.655,12.13 Z" style="fill:#b3b3b3"/></g><g id="g72248"><circle id="circle72244" cx="9" cy="2.128" r="1.302" style="fill:#fff"/><path id="path72246" d="M 9,0.826 A 1.3,1.3 0 1 1 7.7,2.126 1.3,1.3 0 0 1 9,0.826 M 9,0.174 A 1.954,1.954 0 1 0 10.953,2.128 1.956,1.956 0 0 0 9,0.174 Z" style="fill:#b3b3b3"/></g></g><metadata id="metadata72252"/></svg>