<svg xmlns="http://www.w3.org/2000/svg" xmlns:svg="http://www.w3.org/2000/svg" id="svg72992" width="18" height="14.471" version="1.1" viewBox="0 0 18 14.471"><defs id="defs72973"><linearGradient id="e6ad4df9-0ab7-4b49-9706-620b42380f0b" x1="9" x2="9" y1="16.236" y2="5.599" gradientTransform="translate(-8.3333391e-7,1.764)" gradientUnits="userSpaceOnUse"><stop id="stop72968" offset="0" stop-color="#005ba1"/><stop id="stop72970" offset=".775" stop-color="#0078d4"/></linearGradient></defs><g id="e7885b9c-9714-4276-bd41-591cb7e086a5" transform="translate(8.3333391e-7,-1.764)"><path id="path72975" d="m 0,5.6 h 18 v 10.035 a 0.6,0.6 0 0 1 -0.6,0.6 H 0.6 A 0.6,0.6 0 0 1 0,15.635 Z" style="fill:url(#e6ad4df9-0ab7-4b49-9706-620b42380f0b)"/><rect id="rect72977" width="15.527" height="8.514" x="1.309" y="6.657" rx=".6" style="opacity:.6;fill:#5ea0ef"/><path id="path72979" d="m 0.6,1.764 h 16.8 a 0.6,0.6 0 0 1 0.6,0.6 V 5.6 H 0 V 2.365 A 0.6,0.6 0 0 1 0.6,1.764 Z" style="fill:#005ba1"/><path id="path72981" d="m 7.109,13.217 -0.321,0.32 a 0.144,0.144 0 0 1 -0.205,0 L 4.258,11.205 a 0.29,0.29 0 0 1 0,-0.41 l 0.321,-0.32 2.531,2.537 a 0.145,0.145 0 0 1 -0.001,0.205 z m 3.653,0 0.321,0.32 a 0.144,0.144 0 0 0 0.205,0 l 2.325,-2.332 a 0.29,0.29 0 0 0 0,-0.41 l -0.322,-0.32 -2.53,2.537 a 0.145,0.145 0 0 0 0.001,0.205 z" style="opacity:.8;fill:#fff"/><path id="path72983" d="m 6.831,8.433 0.32,0.321 a 0.144,0.144 0 0 1 0,0.205 l -2.575,2.568 -0.32,-0.322 a 0.289,0.289 0 0 1 0,-0.41 l 2.37,-2.363 a 0.145,0.145 0 0 1 0.205,10e-4 z m 4.207,0 -0.32,0.321 a 0.144,0.144 0 0 0 0,0.205 l 2.575,2.568 0.32,-0.321 a 0.292,0.292 0 0 0 0,-0.411 l -2.37,-2.362 a 0.144,0.144 0 0 0 -0.205,10e-4 z" style="fill:#fff"/><path id="path72985" d="M 8.159,14.363 7.646,14.2 A 0.105,0.105 0 0 1 7.579,14.069 L 9.669,7.54 a 0.1,0.1 0 0 1 0.13,-0.067 l 0.513,0.164 a 0.1,0.1 0 0 1 0.067,0.13 L 8.289,14.3 a 0.1,0.1 0 0 1 -0.13,0.063 z" style="fill:#fff"/><path id="path72987" d="m 3.166,3.847 a 0.76,0.76 0 1 1 -0.76,-0.76 0.76,0.76 0 0 1 0.76,0.76 z M 4.8,3.087 A 0.76,0.76 0 1 0 5.56,3.847 0.76,0.76 0 0 0 4.8,3.087 Z m 2.393,0 a 0.76,0.76 0 1 0 0.76,0.76 0.76,0.76 0 0 0 -0.762,-0.76 z" style="fill:#fff"/></g><metadata id="metadata72990">​​</metadata></svg>