<svg xmlns="http://www.w3.org/2000/svg" xmlns:v="https://vecta.io/nano" width="95.439" height="87.274" fill="none"><style>.B{fill:#000}.C{color-interpolation-filters:sRGB}.D{flood-opacity:0}.E{fill-opacity:.32}.F{fill-opacity:.24}.G{fill-rule:evenodd}</style><g clip-path="url(#I)" transform="translate(-.426 -4.511)"><mask id="A" width="96" height="88" x="0" y="4" mask-type="alpha" maskUnits="userSpaceOnUse"><path fill="#c4c4c4" d="M2.385 60.41c4.861 18.142 26.402 34.456 51.2 30.879 3.237-.467 5.115-3.754 4.268-6.913l13.78 5.163c1.316.493 2.799.265 3.875-.638 18.001-15.093 23.844-32.686 18.398-53.013-4.861-18.142-26.402-34.456-51.2-30.879-3.237.467-5.115 3.754-4.268 6.913l-13.78-5.163c-1.316-.493-2.799-.265-3.875.638C2.781 22.489-3.062 40.082 2.385 60.41z" class="G"/></mask><g mask="url(#A)"><path fill="url(#F)" d="M36.905 6.204c27.17-7.28 51.764 10.142 57.001 29.686 5.62 20.974-.78 39.037-20.152 54.446l-15.901-5.957-4.591-17.135c-.286-1.067.35-2.157 1.394-2.519 6.25-2.17 11.539-6.521 14.869-12.289 3.665-6.347 4.658-13.891 2.761-20.97s-6.529-13.116-12.876-16.78-13.891-4.658-20.97-2.761z"/><g class="B E" filter="url(#B)"><path d="M39.804 34.284c2.005-.86 3.294-2.96 2.718-5.109L57.85 86.376c-7.08 1.897-14.623.904-20.97-2.761S25.9 73.915 24.003 66.835s-.904-14.623 2.761-20.97c3-5.197 7.59-9.243 13.04-11.581z"/><path d="M56.485 66.014c-2.005.86-3.294 2.96-2.718 5.109L38.44 13.922c7.08-1.897 14.623-.904 20.97 2.761s10.979 9.701 12.876 16.78.904 14.623-2.761 20.97c-3 5.197-7.59 9.243-13.04 11.581z"/></g><g class="B F" filter="url(#C)"><path d="M39.804 32.664c2.005-.86 3.294-2.96 2.718-5.109L57.85 84.756c-7.08 1.897-14.623.904-20.97-2.761S25.9 72.295 24.003 65.215s-.904-14.623 2.761-20.97c3-5.197 7.59-9.243 13.04-11.581z"/><path d="M56.485 64.394c-2.005.86-3.294 2.96-2.718 5.109L38.44 12.302c7.08-1.897 14.623-.904 20.97 2.761s10.979 9.701 12.876 16.78.904 14.623-2.761 20.97c-3 5.197-7.59 9.243-13.04 11.581z"/></g><path fill="url(#G)" d="M39.804 32.289c2.005-.86 3.294-2.96 2.718-5.109l3.075 11.477-7.158-26.731c7.08-1.897 14.623-.904 20.97 2.761s10.979 9.701 12.876 16.78.904 14.623-2.761 20.97c-3 5.197-7.59 9.243-13.04 11.581-1.946.835-3.226 2.838-2.773 4.921l4.138 15.442c-7.08 1.897-14.623.904-20.97-2.761S25.9 71.919 24.003 64.839s-.904-14.623 2.761-20.97c3-5.197 7.59-9.243 13.04-11.581z" class="G"/><g class="B E" filter="url(#D)"><path d="M59.382 92.099C32.211 99.379 7.618 81.956 2.381 62.413c-5.62-20.974.78-39.037 20.152-54.446l15.901 5.957 4.074 15.203c.572 2.134-.711 4.301-2.74 5.175-5.435 2.34-10.011 6.38-13.005 11.565-3.665 6.347-4.658 13.891-2.761 20.97s6.529 13.116 12.876 16.78 13.891 4.658 20.97 2.761z"/></g><g class="B F" filter="url(#E)"><path d="M59.382 90.479C32.211 97.759 7.618 80.336 2.381 60.793c-5.62-20.974.78-39.037 20.152-54.446l15.901 5.957 4.074 15.203c.572 2.134-.711 4.301-2.74 5.174-5.435 2.34-10.011 6.38-13.005 11.565-3.665 6.347-4.658 13.891-2.761 20.97s6.529 13.116 12.876 16.78 13.891 4.658 20.97 2.761z"/></g><path fill="url(#H)" d="M59.382 90.097C32.211 97.378 7.618 79.955 2.381 60.412c-5.62-20.974.78-39.037 20.152-54.446l15.901 5.957 4.074 15.203c.572 2.134-.711 4.301-2.74 5.174-5.435 2.34-10.011 6.38-13.005 11.565-3.665 6.347-4.658 13.891-2.761 20.97s6.529 13.116 12.876 16.78 13.891 4.658 20.97 2.761z"/></g></g><defs><filter id="B" width="66.166" height="90.338" x="15.062" y="4.98" class="C" filterUnits="userSpaceOnUse"><feFlood class="D"/><feBlend in="SourceGraphic"/><feGaussianBlur stdDeviation="4"/></filter><filter id="C" width="51.686" height="75.858" x="22.302" y="10.6" class="C" filterUnits="userSpaceOnUse"><feFlood class="D"/><feBlend in="SourceGraphic"/><feGaussianBlur stdDeviation=".38"/></filter><filter id="D" width="74.959" height="101.822" x="-7.577" y="-.033" class="C" filterUnits="userSpaceOnUse"><feFlood class="D"/><feBlend in="SourceGraphic"/><feGaussianBlur stdDeviation="4"/></filter><filter id="E" width="60.479" height="87.342" x="-.337" y="5.587" class="C" filterUnits="userSpaceOnUse"><feFlood class="D"/><feBlend in="SourceGraphic"/><feGaussianBlur stdDeviation=".38"/></filter><linearGradient id="F" x1="92.25" x2="32.5" y1="103.502" y2="-45.499" gradientUnits="userSpaceOnUse"><stop stop-color="#205b54"/><stop offset=".475" stop-color="#177a6e"/><stop offset="1" stop-color="#0e9c8b"/></linearGradient><linearGradient id="G" x1="85.75" x2="100.562" y1="124.752" y2="-16.954" gradientUnits="userSpaceOnUse"><stop stop-color="#0e9c8b"/><stop offset="1" stop-color="#54c7b8"/></linearGradient><linearGradient id="H" x1="-3.001" x2="69.749" y1="-15.248" y2="123.002" gradientUnits="userSpaceOnUse"><stop stop-color="#cbf8f3"/><stop offset="1" stop-color="#5cd9ca"/></linearGradient><clipPath id="I"><path fill="#fff" d="M0 0h96v96H0z"/></clipPath></defs></svg>