<svg xmlns="http://www.w3.org/2000/svg" xmlns:svg="http://www.w3.org/2000/svg" id="svg19801" width="15.408" height="18.001" version="1.1" viewBox="0 0 15.408 18.001"><defs id="defs19784"><linearGradient id="f8977a6e-0ed8-4940-aaa5-7fa249809f51" x1="5.839" x2="5.839" y1="17.068" gradientTransform="translate(1.296632,-2.0834352e-5)" gradientUnits="userSpaceOnUse"><stop id="stop19773" offset="0" stop-color="#5e9624"/><stop id="stop19775" offset=".037" stop-color="#609925"/><stop id="stop19777" offset=".439" stop-color="#75ba2d"/><stop id="stop19779" offset=".775" stop-color="#81cf31"/><stop id="stop19781" offset="1" stop-color="#86d633"/></linearGradient></defs><title id="title19786">MsPortalFx.base.images-32</title><g id="ad6dac45-d20b-4f6a-9e78-80f4c72c1818" transform="translate(-1.296632,2.0834352e-5)"><g id="g19796"><path id="path19788" d="m 9.477,8.936 v 0 A 7.412,7.412 0 0 0 6.7,7.3 V 4.244 A 6.734,6.734 0 0 1 9.211,5.131 0.215,0.215 0 0 0 9.538,4.946 V 2.49 A 0.218,0.218 0 0 0 9.428,2.301 6.592,6.592 0 0 0 6.7,1.667 V 0.216 A 0.216,0.216 0 0 0 6.481,0 H 5.163 A 0.216,0.216 0 0 0 4.947,0.216 v 1.5 A 4.5,4.5 0 0 0 2.382,2.916 3.511,3.511 0 0 0 1.3,5.51 3.488,3.488 0 0 0 2.187,7.991 7.536,7.536 0 0 0 4.947,9.624 v 2.92 A 7.14,7.14 0 0 1 3.376,12.144 5.118,5.118 0 0 1 1.884,11.4 0.216,0.216 0 0 0 1.541,11.574 V 14.1 a 0.216,0.216 0 0 0 0.116,0.191 7.588,7.588 0 0 0 3.29,0.859 v 1.707 a 0.216,0.216 0 0 0 0.216,0.216 h 1.318 a 0.216,0.216 0 0 0 0.215,-0.216 v -1.79 A 4.678,4.678 0 0 0 9.375,13.9 3.457,3.457 0 0 0 10.38,11.323 3.363,3.363 0 0 0 9.477,8.936 Z m -1.925,2.5 v 0.015 A 0.984,0.984 0 0 1 6.7,12.483 V 10.34 c 0.558,0.31 0.845,0.677 0.852,1.093 z M 4.127,5.355 A 1,1 0 0 1 4.948,4.307 v 2.25 A 1.413,1.413 0 0 1 4.127,5.355 Z" style="fill:url(#f8977a6e-0ed8-4940-aaa5-7fa249809f51)"/><rect id="rect19790" width="5.966" height="1.359" x="11.394" y="14.994" rx=".635" transform="rotate(-135,14.377504,15.673636)" style="fill:#198ab3"/><circle id="circle19792" cx="10.45" cy="11.677" r="4.093" style="fill:#32bedd"/><circle id="circle19794" cx="10.458" cy="11.604" r="3.215" style="fill:#fff"/></g></g><metadata id="metadata19799"/></svg>