<svg xmlns="http://www.w3.org/2000/svg" xmlns:svg="http://www.w3.org/2000/svg" id="svg44593" width="18" height="15.376" version="1.1" viewBox="0 0 18 15.376"><defs id="defs44562"><linearGradient id="bfaf9eca-0566-4d05-9aa2-c2ccb9db061f" x1="9" x2="9" y1="14.071" y2="1.313" gradientTransform="translate(0,1.3106482)" gradientUnits="userSpaceOnUse"><stop id="stop44551" offset="0" stop-color="#0078d4"/><stop id="stop44553" offset=".156" stop-color="#1380da"/><stop id="stop44555" offset=".528" stop-color="#3c91e5"/><stop id="stop44557" offset=".822" stop-color="#559cec"/><stop id="stop44559" offset="1" stop-color="#5ea0ef"/></linearGradient></defs><title id="title44564">MsPortalFx.base.images-58</title><g id="b59a3860-e924-4d5f-b847-0f0976124add" transform="translate(0,-1.3106482)"><g id="g44588"><path id="path44566" d="M 18,10.075 A 4.044,4.044 0 0 0 14.49,6.188 5.1,5.1 0 0 0 9.24,1.313 5.229,5.229 0 0 0 4.24,4.721 4.825,4.825 0 0 0 0,9.364 4.9,4.9 0 0 0 5.068,14.071 c 0.151,0 0.3,-0.007 0.447,-0.019 h 8.207 A 0.819,0.819 0 0 0 13.939,14.019 4.093,4.093 0 0 0 18,10.075 Z" style="fill:url(#bfaf9eca-0566-4d05-9aa2-c2ccb9db061f)"/><path id="path44568" d="m 12.067,11.806 h -6.36 a 0.276,0.276 0 0 0 -0.282,0.27 v 1.732 a 0.276,0.276 0 0 0 0.281,0.27 h 6.361 a 0.276,0.276 0 0 0 0.281,-0.27 v -1.732 a 0.277,0.277 0 0 0 -0.281,-0.27 z" style="fill:#32bedd"/><path id="path44570" d="m 12.067,14.415 h -6.36 a 0.276,0.276 0 0 0 -0.282,0.27 v 1.731 a 0.276,0.276 0 0 0 0.281,0.271 h 6.361 a 0.276,0.276 0 0 0 0.281,-0.271 v -1.731 a 0.277,0.277 0 0 0 -0.281,-0.27 z" style="fill:#198ab3"/><path id="path44572" d="m 11.27,12.231 h 0.373 a 0.072,0.072 0 0 1 0.072,0.072 v 0.356 a 0.069,0.069 0 0 1 -0.069,0.069 H 11.267 A 0.069,0.069 0 0 1 11.198,12.659 V 12.3 a 0.072,0.072 0 0 1 0.072,-0.069 z" style="fill:#b4ec36"/><path id="path44574" d="m 11.268,13.087 h 0.376 a 0.072,0.072 0 0 1 0.072,0.072 v 0.353 a 0.072,0.072 0 0 1 -0.072,0.072 H 11.27 a 0.072,0.072 0 0 1 -0.072,-0.072 v -0.356 a 0.069,0.069 0 0 1 0.07,-0.069 z" style="fill:#b4ec36"/><path id="path44576" d="m 11.289,14.827 h 0.376 a 0.072,0.072 0 0 1 0.072,0.072 v 0.356 a 0.069,0.069 0 0 1 -0.069,0.069 H 11.292 A 0.072,0.072 0 0 1 11.22,15.252 V 14.9 a 0.069,0.069 0 0 1 0.069,-0.073 z" style="fill:#b4ec36"/><path id="path44578" d="m 11.289,15.683 h 0.376 a 0.072,0.072 0 0 1 0.072,0.072 v 0.356 A 0.069,0.069 0 0 1 11.668,16.18 H 11.289 A 0.069,0.069 0 0 1 11.22,16.111 v -0.359 a 0.069,0.069 0 0 1 0.069,-0.069 z" style="fill:#b4ec36"/><path id="path44580" d="M 12.007,8.993 H 5.647 A 0.276,0.276 0 0 0 5.365,9.264 V 11 a 0.277,0.277 0 0 0 0.281,0.271 h 6.361 A 0.277,0.277 0 0 0 12.288,11 V 9.264 A 0.277,0.277 0 0 0 12.007,8.993 Z" style="fill:#50e6ff"/><path id="path44582" d="m 11.208,9.419 h 0.376 a 0.072,0.072 0 0 1 0.072,0.072 V 9.847 A 0.069,0.069 0 0 1 11.587,9.916 H 11.21 A 0.072,0.072 0 0 1 11.138,9.844 V 9.488 a 0.069,0.069 0 0 1 0.07,-0.069 z" style="fill:#fff"/><path id="path44584" d="m 11.208,10.275 h 0.376 a 0.072,0.072 0 0 1 0.072,0.072 V 10.7 a 0.069,0.069 0 0 1 -0.069,0.069 H 11.208 A 0.069,0.069 0 0 1 11.139,10.7 v -0.359 a 0.069,0.069 0 0 1 0.069,-0.066 z" style="fill:#fff"/><path id="path44586" d="m 11.635,7.4 -2.43,2.43 a 0.29,0.29 0 0 1 -0.41,0 L 6.365,7.4 A 0.13,0.13 0 0 1 6.457,7.179 H 7.951 A 0.129,0.129 0 0 0 8.08,7.05 V 4.014 a 0.1,0.1 0 0 1 0.1,-0.1 h 1.636 a 0.1,0.1 0 0 1 0.1,0.1 v 3.037 a 0.129,0.129 0 0 0 0.129,0.129 h 1.494 a 0.13,0.13 0 0 1 0.096,0.22 z" style="fill:#fff"/></g></g><metadata id="metadata44591"/></svg>