<svg xmlns="http://www.w3.org/2000/svg" xmlns:svg="http://www.w3.org/2000/svg" id="a71b9b98-7497-4914-8ffd-4426ed6ff3dc" width="17" height="13.67" version="1.1" viewBox="0 0 17 13.67"><defs id="defs75702"><linearGradient id="bf742bd2-510c-4ed0-8c96-14df7349dd34" x1="9" x2="9" y1="15.83" y2="5.79" gradientUnits="userSpaceOnUse"><stop id="stop75693" offset="0" stop-color="#32bedd"/><stop id="stop75695" offset=".18" stop-color="#32caea"/><stop id="stop75697" offset=".41" stop-color="#32d2f2"/><stop id="stop75699" offset=".78" stop-color="#32d4f5"/></linearGradient></defs><title id="title75704">Icon-storage-87</title><path id="path75706" d="m 0,3.62 h 17 v 9.48 a 0.57,0.57 0 0 1 -0.57,0.57 H 0.57 A 0.57,0.57 0 0 1 0,13.1 Z" style="fill:url(#bf742bd2-510c-4ed0-8c96-14df7349dd34)"/><path id="path75708" d="M 0.57,0 H 16.43 A 0.57,0.57 0 0 1 17,0.57000001 V 3.62 H 0 V 0.56000001 A 0.57,0.57 0 0 1 0.57,0 Z" style="fill:#198ab3"/><path id="path75710" d="m 2.31,4.72 h 12.37 a 0.27,0.27 0 0 1 0.26,0.27 v 1.4 A 0.27,0.27 0 0 1 14.68,6.66 H 2.31 A 0.27,0.27 0 0 1 2.05,6.39 V 4.99 A 0.27,0.27 0 0 1 2.31,4.72 Z" style="fill:#fff"/><path id="path75712" d="m 2.32,7.51 h 12.37 a 0.27,0.27 0 0 1 0.26,0.27 V 9.19 A 0.27,0.27 0 0 1 14.69,9.46 H 2.32 A 0.27,0.27 0 0 1 2.06,9.19 V 7.83 A 0.27,0.27 0 0 1 2.32,7.51 Z" style="fill:#9cebff"/><path id="path75714" d="m 2.32,10.33 h 12.37 a 0.27,0.27 0 0 1 0.26,0.27 v 1.41 a 0.27,0.27 0 0 1 -0.26,0.27 H 2.32 A 0.27,0.27 0 0 1 2.06,12.01 V 10.6 a 0.27,0.27 0 0 1 0.26,-0.27 z" style="fill:#50e6ff"/><metadata id="metadata75716"/></svg>