<svg xmlns="http://www.w3.org/2000/svg" xmlns:svg="http://www.w3.org/2000/svg" id="e4ae8a02-ecdf-4615-acab-7de50aa6608c" width="15.44" height="17" version="1.1" viewBox="0 0 15.44 17"><defs id="defs35721"><linearGradient id="b1fe53e9-3732-4e46-b453-fa1ea6f957c6" x1="6.36" x2="6.36" y1="22.03" y2="-1.85" gradientTransform="translate(-1.28,-0.5)" gradientUnits="userSpaceOnUse"><stop id="stop35703" offset="0" stop-color="#0078d4"/><stop id="stop35705" offset=".17" stop-color="#1c84dc"/><stop id="stop35707" offset=".38" stop-color="#3990e4"/><stop id="stop35709" offset=".59" stop-color="#4d99ea"/><stop id="stop35711" offset=".8" stop-color="#5a9eee"/><stop id="stop35713" offset="1" stop-color="#5ea0ef"/></linearGradient><linearGradient id="e40ed2c4-7dda-4984-81b6-12828653a65c" x1="6.36" x2="6.36" y1="15.59" y2="1.94" gradientTransform="translate(-1.28,-0.5)" gradientUnits="userSpaceOnUse"><stop id="stop35716" offset="0" stop-color="#d2ebff"/><stop id="stop35718" offset="1" stop-color="#f0fffd"/></linearGradient></defs><title id="title35723">Icon-intune-333</title><rect id="rect35725" width="10.17" height="16.99" x="0" y="0" fill="url(#b1fe53e9-3732-4e46-b453-fa1ea6f957c6)" rx=".51" style="fill:url(#b1fe53e9-3732-4e46-b453-fa1ea6f957c6)"/><rect id="rect35727" width="1.14" height=".97" x="4.51" y="15.67" fill="#f2f2f2" rx=".27"/><rect id="rect35729" width="2.34" height=".31" x="3.91" y=".57" fill="#f2f2f2" rx=".15"/><rect id="rect35731" width="8.26" height="13.65" x=".95" y="1.44" fill="url(#e40ed2c4-7dda-4984-81b6-12828653a65c)" opacity=".9" rx=".19" style="fill:url(#e40ed2c4-7dda-4984-81b6-12828653a65c)"/><rect id="rect35733" width="7.52" height="7.52" x="7.92" y="9.48" fill="#76bc2d" rx=".28"/><path id="path35735" fill="#fff" d="m 11.294585,14.839512 -0.431335,0.431335 a 0.19,0.19 0 0 1 -0.268701,0 l -1.7253405,-1.72534 a 0.19,0.19 0 0 1 0,-0.268701 L 9.1732644,12.97275 a 0.19,0.19 0 0 1 0.2687006,0 l 1.859691,1.859691 z"/><path id="path35737" fill="#fff" d="M 10.634035,15.258518 10.2027,14.827183 14.162498,10.867385 a 0.19,0.19 0 0 1 0.2687,0 l 0.304056,0.304056 a 0.19,0.19 0 0 1 0,0.268701 l -3.825448,3.825447 a 0.19,0.19 0 0 1 -0.2687,0 z"/><metadata id="metadata35822"/></svg>