<svg xmlns="http://www.w3.org/2000/svg" xmlns:svg="http://www.w3.org/2000/svg" id="svg65210" width="15.626" height="18" version="1.1" viewBox="0 0 15.626 18"><defs id="defs65191"><linearGradient id="e528ba14-992e-47c5-bef0-663ca17820dc" x1="11.994" x2="11.994" y1="-.209" y2="10.309" gradientTransform="translate(-1.194,1.1989809e-5)" gradientUnits="userSpaceOnUse"><stop id="stop65166" offset=".141" stop-color="#0078d4"/><stop id="stop65168" offset="1" stop-color="#005ba1"/></linearGradient><linearGradient id="b050b43a-c70e-4827-aa54-37799bdb11bc" x1="14.007" x2="8.781" y1="773.156" y2="782.207" gradientTransform="matrix(1,0,0,-1,-1.194,791.51601)" gradientUnits="userSpaceOnUse"><stop id="stop65171" offset="0" stop-color="#005ba1"/><stop id="stop65173" offset=".765" stop-color="#0078d4"/></linearGradient><linearGradient id="bf6362c5-fa60-479b-82f4-db6db7ad3911" x1="3.561" x2="7.189" y1="2.123" y2="5.751" gradientTransform="translate(-1.194,1.1989809e-5)" gradientUnits="userSpaceOnUse"><stop id="stop65176" offset="0" stop-color="#50e6ff"/><stop id="stop65178" offset="1" stop-color="#32bedd"/></linearGradient><linearGradient id="a3174f49-fd6f-4b79-8052-8c8487ba3867" x1="1.245" x2="8.564" y1="9.432" y2="16.751" gradientTransform="translate(-1.194,1.1989809e-5)" gradientUnits="userSpaceOnUse"><stop id="stop65181" offset="0" stop-color="#50e6ff"/><stop id="stop65183" offset="1" stop-color="#32bedd"/></linearGradient><linearGradient id="b73ce571-9a63-4ed7-8627-af050cd0b779" x1="9.42" x2="12.866" y1="4.015" y2="7.46" gradientTransform="translate(-1.194,1.1989809e-5)" gradientUnits="userSpaceOnUse"><stop id="stop65186" offset=".235" stop-color="#0078d4"/><stop id="stop65188" offset="1" stop-color="#005ba1"/></linearGradient></defs><path id="path65193" fill="url(#e528ba14-992e-47c5-bef0-663ca17820dc)" d="M 9.914,1.1989809e-5 A 5.675,5.675 0 0 0 6.076,1.486012 a 0.28,0.28 0 0 0 0.011,0.425 2.8,2.8 0 0 1 0.859,1.126 0.283,0.283 0 0 0 0.461,0.1 3.59,3.59 0 1 1 4.546,5.524 0.28,0.28 0 0 0 0.013,0.474 4.8,4.8 0 0 1 1.153,0.964 0.283,0.283 0 0 0 0.391,0.033 A 5.7,5.7 0 0 0 9.914,1.1989809e-5 Z" style="fill:url(#e528ba14-992e-47c5-bef0-663ca17820dc)"/><path id="path65195" fill="url(#b050b43a-c70e-4827-aa54-37799bdb11bc)" d="m 8.128,18.000012 h 5.157 a 0.611,0.611 0 0 0 0.6,-0.595 v -4.166 a 4.364,4.364 0 0 0 -8.728,0 z" style="fill:url(#b050b43a-c70e-4827-aa54-37799bdb11bc)"/><path id="path65197" fill="url(#bf6362c5-fa60-479b-82f4-db6db7ad3911)" d="m 4.359,6.500012 a 2.38,2.38 0 1 0 -2.38,-2.38 2.38,2.38 0 0 0 2.38,2.38 z" style="fill:url(#bf6362c5-fa60-479b-82f4-db6db7ad3911)"/><path id="path65199" fill="url(#a3174f49-fd6f-4b79-8052-8c8487ba3867)" d="m 0.591,18.000012 h 7.537 a 0.611,0.611 0 0 0 0.6,-0.595 v -5.752 a 4.364,4.364 0 1 0 -8.728,0 v 5.752 a 0.611,0.611 0 0 0 0.591,0.595 z" style="fill:url(#a3174f49-fd6f-4b79-8052-8c8487ba3867)"/><circle id="circle65203" cx="9.914" cy="5.702" r="2.38" fill="url(#b73ce571-9a63-4ed7-8627-af050cd0b779)" style="fill:url(#b73ce571-9a63-4ed7-8627-af050cd0b779)"/></svg>