<svg xmlns="http://www.w3.org/2000/svg" width="18" height="18" fill="none"><path fill="#005ba1" d="M2.532 0h12.937c.207 0 .414.12.414.24v2.697c0 .12-.207.24-.414.24H2.532c-.207 0-.414-.12-.414-.24V.24c0-.18.207-.24.414-.24z"/><path fill="#5ea0ef" d="M.964 1.059h16.071c.536 0 .964.605.964 1.361v13.462H0V2.42c0-.756.429-1.361.964-1.361z"/><path fill="#0078d4" d="M17.682 14.082H0v1.588h17.682z"/><path fill="#83b9f9" d="M2.753 11.33h12.176c.212 0 .424.212.424.424v.953a.46.46 0 0 1-.424.424H2.753a.46.46 0 0 1-.424-.424v-.953c0-.212.212-.424.424-.424z"/><path fill="#c3f1ff" d="M14.718 8.365c.234 0 .424-.19.424-.424s-.19-.424-.424-.424-.424.19-.424.424.19.424.424.424z"/><path fill="url(#A)" d="M3.176 11.647h11.329v5.929c0 .212-.212.424-.424.424H3.6c-.212 0-.424-.212-.424-.424z"/><defs><linearGradient id="A" x1="8.839" x2="8.839" y1="18" y2="11.657" gradientUnits="userSpaceOnUse"><stop stop-color="#c3f1ff"/><stop offset=".999" stop-color="#9cebff"/></linearGradient></defs></svg>