<svg xmlns="http://www.w3.org/2000/svg" xmlns:svg="http://www.w3.org/2000/svg" id="svg78906" width="14.74" height="17.13" version="1.1" viewBox="0 0 14.74 17.13"><defs id="defs78889"><linearGradient id="bd8b454e-57d0-4e9e-b7dd-7f2f7c4a6f28" x1="8.18" x2="8.18" y1="6.52" y2="15.24" gradientTransform="translate(-1.63,-0.38)" gradientUnits="userSpaceOnUse"><stop id="stop78882" offset="0" stop-color="#fff"/><stop id="stop78884" offset=".48" stop-color="#f6f6f6"/><stop id="stop78886" offset="1" stop-color="#e6e6e6"/></linearGradient></defs><title id="title78891">Icon-azurestack-5</title><path id="e7683ea0-9914-452a-a6ce-eba81ed14626" fill="#50e6ff" d="m 13.51,4.32 h -1 v 12.81 l 1,-1.93 z"/><path id="b2cfc25a-7db2-4d82-94f3-4ad5068ca79d" fill="#9cebff" d="m 13.51,15.19 v 0 l -1,1.93 1,-0.8 1.23,-1 z"/><path id="e6582dd3-817c-4e32-88b3-34fb1b6c9cec" fill="#a3a3a3" d="M 6.94,2.41 A 1.57,1.57 0 0 1 8.57,0.9 1.57,1.57 0 0 1 10.19,2.41 v 1.91 h 0.79 V 2.41 a 2.41,2.41 0 0 0 -4.82,0 v 1.91 h 0.78 z"/><path id="b506684c-dab5-49dd-a805-0ff2e9fb2f29" fill="#767676" d="M 4.55,2.41 A 1.57,1.57 0 0 1 6.17,0.9 1.57,1.57 0 0 1 7.8,2.41 V 4.32 H 8.58 V 2.41 a 2.36,2.36 0 0 0 -2.41,-2.3 2.35,2.35 0 0 0 -2.4,2.3 v 1.91 h 0.78 z"/><polygon id="polygon78897" fill="#32bedd" points="1.63 16.52 2 4.7 14.1 4.7 14.1 17.51" transform="translate(-1.63,-0.38)"/><polygon id="polygon78899" fill="#32bedd" points="16.37 15.76 16 4.7 15.14 4.7 15.14 15.58" transform="translate(-1.63,-0.38)"/><path id="path78901" fill="url(#bd8b454e-57d0-4e9e-b7dd-7f2f7c4a6f28)" d="M 8.78,6.14 H 4.37 A 0.29,0.29 0 0 0 4.08,6.43 v 8 a 0.29,0.29 0 0 0 0.29,0.29 l 4.46,0.14 A 0.28,0.28 0 0 0 9.11,14.57 V 6.43 A 0.28,0.28 0 0 0 8.78,6.14 Z M 5.59,11.87 A 0.08,0.08 0 0 1 5.51,11.94 H 4.69 A 0.08,0.08 0 0 1 4.62,11.87 v -1.06 a 0.08,0.08 0 0 1 0.07,-0.07 h 0.82 a 0.08,0.08 0 0 1 0.08,0.07 z m 0,-1.92 A 0.08,0.08 0 0 1 5.51,10.02 H 4.69 A 0.08,0.08 0 0 1 4.62,9.95 V 8.89 A 0.08,0.08 0 0 1 4.69,8.82 h 0.82 a 0.08,0.08 0 0 1 0.08,0.07 z m 0,-1.93 A 0.09,0.09 0 0 1 5.51,8.1 H 4.69 A 0.09,0.09 0 0 1 4.62,8.02 V 6.96 A 0.08,0.08 0 0 1 4.69,6.89 h 0.82 a 0.08,0.08 0 0 1 0.08,0.07 z m 1.42,6.32 A 0.07,0.07 0 0 1 6.94,14.41 H 6.14 A 0.07,0.07 0 0 1 6.07,14.34 v -1.6 a 0.07,0.07 0 0 1 0.07,-0.07 h 0.82 a 0.07,0.07 0 0 1 0.07,0.07 z m 0,-2.47 A 0.07,0.07 0 0 1 6.94,11.94 H 6.14 A 0.07,0.07 0 0 1 6.07,11.87 v -1.06 a 0.07,0.07 0 0 1 0.07,-0.07 h 0.82 a 0.07,0.07 0 0 1 0.07,0.07 z m 0,-1.92 A 0.07,0.07 0 0 1 6.94,10.02 H 6.14 A 0.07,0.07 0 0 1 6.07,9.95 V 8.89 A 0.07,0.07 0 0 1 6.14,8.82 h 0.82 a 0.07,0.07 0 0 1 0.07,0.07 z m 0,-1.93 A 0.08,0.08 0 0 1 6.94,8.1 H 6.14 A 0.08,0.08 0 0 1 6.07,8.02 V 6.96 A 0.07,0.07 0 0 1 6.14,6.89 h 0.82 a 0.07,0.07 0 0 1 0.07,0.07 z m 1.44,3.85 A 0.07,0.07 0 0 1 8.38,11.94 H 7.58 A 0.07,0.07 0 0 1 7.51,11.87 v -1.06 a 0.07,0.07 0 0 1 0.07,-0.07 h 0.79 a 0.07,0.07 0 0 1 0.07,0.07 z m 0,-1.92 A 0.07,0.07 0 0 1 8.38,10.02 H 7.58 A 0.07,0.07 0 0 1 7.51,9.95 V 8.89 A 0.07,0.07 0 0 1 7.58,8.82 h 0.79 a 0.07,0.07 0 0 1 0.07,0.07 z m 0,-1.93 A 0.08,0.08 0 0 1 8.38,8.1 H 7.58 A 0.08,0.08 0 0 1 7.51,8.02 V 6.96 A 0.07,0.07 0 0 1 7.58,6.89 h 0.79 a 0.07,0.07 0 0 1 0.07,0.07 z" style="fill:url(#bd8b454e-57d0-4e9e-b7dd-7f2f7c4a6f28)"/><metadata id="metadata78990"/></svg>