<svg xmlns="http://www.w3.org/2000/svg" xmlns:svg="http://www.w3.org/2000/svg" id="svg79206" width="18" height="16.929" version="1.1" viewBox="0 0 18 16.929"><defs id="defs79193"><linearGradient id="b19ea74f-b8c7-4b64-9a97-b6e9eebc071e" x1="-554.999" x2="-554.999" y1="1012.218" y2="1024.977" gradientTransform="matrix(1,0,0,-1,564,1024.9773)" gradientUnits="userSpaceOnUse"><stop id="stop79182" offset="0" stop-color="#0078d4"/><stop id="stop79184" offset=".156" stop-color="#1380da"/><stop id="stop79186" offset=".528" stop-color="#3c91e5"/><stop id="stop79188" offset=".822" stop-color="#559cec"/><stop id="stop79190" offset="1" stop-color="#5ea0ef"/></linearGradient></defs><path id="path79195" fill="#5e9624" d="m 17.992,12.231294 c -0.105,0.675 -1.083,1.057 -1.639,1.26 -1.7,0.619 -14.109,0.429 -15.535,-0.394 -0.041,-0.023 -0.078,-0.047 -0.118,-0.071 l -0.064,-0.04 c -0.057,-0.038 -0.11,-0.076 -0.16,-0.115 A 1,1 0 0 1 0,12.116294 v 2.438 c 0,1.093 2.118,1.535 2.9,1.737 a 20.963,20.963 0 0 0 4,0.554 29.042,29.042 0 0 0 8.145,-0.529 c 0.889,-0.2 2.594,-0.575 2.927,-1.567 a 0.675,0.675 0 0 0 0.02,-0.1 c 0,-0.019 0,-0.037 0,-0.076 v -2.438 a 0.894,0.894 0 0 1 0,0.096 z"/><ellipse id="ellipse79197" cx="-12.116" cy="9.016" fill="#76bc2d" rx="2.358" ry="8.996" transform="rotate(-89.936)"/><path id="path79199" fill="#f2f2f2" d="m 11.5,13.769294 c -4.087,0.3 -8.518,-0.188 -9.9,-1.1 -1.382,-0.912 0.814,-1.888 4.9,-2.191 4.086,-0.303 8.516,0.188 9.9,1.1 1.384,0.912 -0.816,1.888 -4.9,2.191 z"/><path id="path79201" fill="url(#b19ea74f-b8c7-4b64-9a97-b6e9eebc071e)" d="m 18,8.7612941 a 4.042,4.042 0 0 0 -3.51,-3.886 5.1,5.1 0 0 0 -5.248,-4.873 5.227,5.227 0 0 0 -5,3.407 4.823,4.823 0 0 0 -4.242,4.652 4.9,4.9 0 0 0 5.068,4.6999999 c 0.151,0 0.3,-0.007 0.446,-0.02 h 8.205 a 0.837,0.837 0 0 0 0.217,-0.032 A 4.091,4.091 0 0 0 18,8.7612941 Z" style="fill:url(#b19ea74f-b8c7-4b64-9a97-b6e9eebc071e)"/></svg>