<svg xmlns="http://www.w3.org/2000/svg" xmlns:svg="http://www.w3.org/2000/svg" id="ff30cf1f-fbde-4896-9279-4e5bbc6f104f" width="17.022" height="16.744" version="1.1" viewBox="0 0 17.022 16.744"><defs id="defs58307"><linearGradient id="f5a0c05e-637e-4adf-b38d-bb1a0e612a3a" x1="6050.2" x2="6038.28" y1="-3638.83" y2="-3638.83" gradientTransform="rotate(90,1202.39,-4832.22)" gradientUnits="userSpaceOnUse"><stop id="stop58292" offset="0" stop-color="#198ab3"/><stop id="stop58294" offset="0" stop-color="#198ab3"/><stop id="stop58296" offset=".11" stop-color="#22a5cb"/><stop id="stop58298" offset=".23" stop-color="#29bade"/><stop id="stop58300" offset=".37" stop-color="#2ec9eb"/><stop id="stop58302" offset=".53" stop-color="#31d1f3"/><stop id="stop58304" offset=".78" stop-color="#32d4f5"/></linearGradient></defs><title id="title58309">Icon-manage-304</title><path id="path58311" d="m 14.671498,12.838187 a 2.08,2.08 0 0 1 2.28,2.24 v 0 a 1.89,1.89 0 0 1 -3.06,1.25 0.67,0.67 0 0 1 -0.26,-0.54 v -2.96 z" style="fill:#198ab3"/><path id="path58313" d="M 17.001498,12.828187 V 3.8281868 a 2.29,2.29 0 0 0 -2.29,-2.27 H 0.02149849 v 9.0000002 a 2.29,2.29 0 0 0 2.29000001,2.29 h 2.43 7.4899995 a 25.76,25.76 0 0 1 3,0 c 2,0.32 1.64,2.47 1.64,2.47 a 11.13,11.13 0 0 0 0.13,-2.49 z" style="fill:url(#f5a0c05e-637e-4adf-b38d-bb1a0e612a3a)"/><path id="path58315" d="m 0.01149849,10.748187 v -0.07 a 1.84,1.84 0 0 1 3.24000001,-0.9000002 0.23,0.23 0 0 0 0.4,-0.15 v -7.82 a 1.36,1.36 0 0 0 0,-0.29 v 0 0 a 1.85,1.85 0 0 0 -3.64000001,0 v 0 0 a 0.92,0.92 0 0 0 0,0.29 z" style="fill:#198ab3"/><path id="path58317" d="m 11.851498,7.8081868 a 0.28,0.28 0 0 0 -0.28,-0.28 h -1 c -0.06,-0.14 -0.11,-0.29 -0.17,-0.43 -0.22,-0.57 -0.4599995,-1.14 -0.6899995,-1.7 l -0.08,-0.19 a 1.38,1.38 0 1 0 -0.7,0 l -0.09,0.2 c -0.25,0.56 -0.49,1.13 -0.73,1.7 l -0.18,0.44 h -1 a 0.28,0.28 0 0 0 -0.28,0.28 0.27,0.27 0 0 0 0.28,0.28 h 0.8 c -0.1,0.24 -0.19,0.48 -0.28,0.72 -0.22,0.58 -0.43,1.16 -0.63,1.7500002 v 0 a 0.23048861,0.23048861 0 0 0 0.42,0.19 v 0 c 0.31,-0.54 0.6,-1.0900002 0.88,-1.6300002 0.18,-0.34 0.35,-0.68 0.52,-1 h 1.26 l 0.4799995,1 c 0.28,0.55 0.56,1.1000002 0.85,1.6400002 v 0 a 0.23,0.23 0 0 0 0.42,-0.18 v 0 c -0.18,-0.59 -0.38,-1.1700002 -0.58,-1.7500002 l -0.27,-0.73 h 0.74 a 0.27,0.27 0 0 0 0.31,-0.31 z m -3.3399995,-3.94 a 0.81,0.81 0 0 1 1.6199995,0 0.81,0.81 0 0 1 -1.6199995,0 z m 0.43,3.66 v -0.07 l 0.33,-0.72 0.32,0.71 v 0.08 z" style="fill:#fff"/><metadata id="metadata58319"/></svg>