<svg xmlns="http://www.w3.org/2000/svg" xmlns:svg="http://www.w3.org/2000/svg" id="b165814b-e5d3-4a73-8b60-71fa2d0cb816" width="18" height="16.63" version="1.1" viewBox="0 0 18 16.63"><defs id="defs43277"><linearGradient id="a900f86d-5158-4de7-b0f9-968553d5dad2" x1="9" x2="9" y1="12.68" y2=".68" gradientTransform="translate(0,-0.68000001)" gradientUnits="userSpaceOnUse"><stop id="stop43267" offset="0" stop-color="#0078d4"/><stop id="stop43269" offset=".82" stop-color="#5ea0ef"/></linearGradient><linearGradient id="ba7aba1e-2982-4235-b222-37c6e8ce6a5d" x1="9" x2="9" y1="17.32" y2="12.68" gradientTransform="translate(0,-0.68000001)" gradientUnits="userSpaceOnUse"><stop id="stop43272" offset="0" stop-color="#1490df"/><stop id="stop43274" offset=".98" stop-color="#1f56a3"/></linearGradient></defs><title id="title43279">Icon-manage-311</title><rect id="rect43281" width="18" height="12" x="0" y="0" fill="url(#a900f86d-5158-4de7-b0f9-968553d5dad2)" rx=".6" style="fill:url(#a900f86d-5158-4de7-b0f9-968553d5dad2)"/><rect id="rect43283" width="16" height="10" x="1" y="1" fill="#fff" rx=".33"/><path id="path43285" fill="url(#ba7aba1e-2982-4235-b222-37c6e8ce6a5d)" d="M 12.61,15.63 C 10.83,15.35 10.76,14.07 10.77,12 H 7.23 c 0,2.07 -0.06,3.35 -1.84,3.63 a 1.05,1.05 0 0 0 -0.89,1 h 9 a 1.05,1.05 0 0 0 -0.89,-1 z" style="fill:url(#ba7aba1e-2982-4235-b222-37c6e8ce6a5d)"/><path id="path43287" fill="#86d633" d="M 8.583211,8.3884924 7.9114596,9.0602438 a 0.29,0.29 0 0 1 -0.410122,0 L 4.8426161,6.4015223 a 0.29,0.29 0 0 1 0,-0.4101219 L 5.3093066,5.5247099 a 0.29,0.29 0 0 1 0.4101219,0 L 8.5478557,8.353137 Z"/><path id="path43289" fill="#5e9624" d="M 7.5105104,9.0517893 6.8387589,8.3800379 12.94109,2.2777064 a 0.29,0.29 0 0 1 0.410122,0 l 0.45962,0.4596194 a 0.29,0.29 0 0 1 0,0.4101219 L 7.9135612,9.0447183 a 0.29,0.29 0 0 1 -0.4101219,0 z"/><metadata id="metadata43374"/></svg>