<svg xmlns="http://www.w3.org/2000/svg" xmlns:svg="http://www.w3.org/2000/svg" id="b8136398-1b89-4ae1-8cab-956dfcf4bf4f" width="16.74" height="16.74" version="1.1" viewBox="0 0 16.74 16.74"><defs id="defs26871"><linearGradient id="a5343145-d273-4c33-b7fa-c9c00479c96c" x1="9" x2="9" y1="17.37" y2=".63" gradientTransform="translate(-0.63000011,-0.63000011)" gradientUnits="userSpaceOnUse"><stop id="stop26866" offset="0" stop-color="#773adc"/><stop id="stop26868" offset=".82" stop-color="#a67af4"/></linearGradient></defs><title id="title26873">Icon-identity-234</title><circle id="circle26875" cx="8.37" cy="8.37" r="8.37" fill="url(#a5343145-d273-4c33-b7fa-c9c00479c96c)" style="fill:url(#a5343145-d273-4c33-b7fa-c9c00479c96c)"/><polygon id="polygon26877" fill="#c3f1ff" points="8.97 14.37 2.55 10.18 3.28 9.34 8.97 13.03 14.76 9.33 15.49 10.17" transform="translate(-0.63000011,-0.63000011)"/><polygon id="polygon26879" fill="#fff" points="3.71 8.87 8.97 2.6 14.34 8.88 8.97 12.27" transform="translate(-0.63000011,-0.63000011)"/><polygon id="polygon26881" fill="#c3f1ff" points="8.97 12.27 3.71 8.87 8.97 2.6" transform="translate(-0.63000011,-0.63000011)"/><polygon id="polygon26883" fill="#50e6ff" points="8.97 12.27 14.34 8.88 8.97 2.6" transform="translate(-0.63000011,-0.63000011)"/><polygon id="polygon26885" fill="#32bedd" points="14.34 8.88 8.97 12.27 8.97 7.59" transform="translate(-0.63000011,-0.63000011)"/><polygon id="polygon26887" fill="#9cebff" points="3.71 8.87 8.97 7.59 8.97 12.27" transform="translate(-0.63000011,-0.63000011)"/><polygon id="polygon26889" fill="#32bedd" points="8.97 14.37 15.49 10.17 14.76 9.33 8.97 13.03" transform="translate(-0.63000011,-0.63000011)"/><metadata id="metadata26976"/></svg>