<svg xmlns="http://www.w3.org/2000/svg" xmlns:svg="http://www.w3.org/2000/svg" id="fca2105f-c039-4f34-bd65-8ab95d4ecdb9" width="16.84" height="17.001" version="1.1" viewBox="0 0 16.84 17.001"><defs id="defs1242"><linearGradient id="a773af38-43e4-4fd2-9485-f8aac63ca91b" x1="5.57" x2="5.57" y1="17.5" y2=".5" gradientUnits="userSpaceOnUse"><stop id="stop1226" offset=".05" stop-color="#949494"/><stop id="stop1228" offset=".36" stop-color="#979797"/><stop id="stop1230" offset=".54" stop-color="#9f9f9f"/><stop id="stop1232" offset=".69" stop-color="#adadad"/><stop id="stop1234" offset=".73" stop-color="#b3b3b3"/></linearGradient><linearGradient id="b4779ae6-74a5-486d-8aad-cd011859785a" x1="10.56" x2="10.56" y1="6.02" y2="19.71" gradientUnits="userSpaceOnUse"><stop id="stop1237" offset=".18" stop-color="#5ea0ef"/><stop id="stop1239" offset="1" stop-color="#0078d4"/></linearGradient></defs><title id="title1244">Icon-web-46</title><path id="path1246" d="m 9.9800893,16.430091 a 0.56,0.56 0 0 1 -0.57,0.57 H 0.56008929 a 0.56,0.56 0 0 1 -0.55999999704,-0.57 V 0.57009092 A 0.56,0.56 0 0 1 0.56008929,9.0924122e-5 H 9.4200893 a 0.56,0.56 0 0 1 0.57,0.569999995878 z" style="fill:url(#a773af38-43e4-4fd2-9485-f8aac63ca91b)"/><path id="path1248" d="m 1.4200893,5.9600909 a 1.08,1.08 0 0 1 1.13,-1.08 h 5 a 1.08,1.08 0 0 1 1.05,1.08 v 0 a 1.08,1.08 0 0 1 -1.08,1.09 h -5 a 1.09,1.09 0 0 1 -1.1,-1.09 z" style="fill:#003067"/><path id="path1250" d="m 1.4200893,2.7400909 a 1.09,1.09 0 0 1 1.13,-1.09 h 5 a 1.08,1.08 0 0 1 1.05,1.09 v 0 a 1.08,1.08 0 0 1 -1.08,1.08 h -5 a 1.08,1.08 0 0 1 -1.1,-1.08 z" style="fill:#003067"/><circle id="circle1252" cx="2.59" cy="2.74" r=".73" style="fill:#50e6ff"/><circle id="circle1254" cx="2.59" cy="5.96" r=".73" style="fill:#50e6ff"/><path id="path1256" d="m 16.840089,13.880091 a 3.12,3.12 0 0 0 -2.67,-3 3.93,3.93 0 0 0 -4,-3.8000001 4,4 0 0 0 -3.8299997,2.66 3.7,3.7 0 0 0 -3.22,3.5900001 3.77,3.77 0 0 0 3.86,3.67 h 0.34 6.2599997 0.17 a 3.15,3.15 0 0 0 3.09,-3.12 z" style="fill:url(#b4779ae6-74a5-486d-8aad-cd011859785a)"/><metadata id="metadata1260"/></svg>