<svg xmlns="http://www.w3.org/2000/svg" xmlns:svg="http://www.w3.org/2000/svg" id="f78ef37b-fde4-461c-94e2-dccff32dd5d7" width="17" height="15.656" version="1.1" viewBox="0 0 17 15.656"><defs id="defs54023"><linearGradient id="bf8a9583-aae9-48ff-87d8-fb8f44e7d6bd" x1="9" x2="9" y1="16.82" y2="1.18" gradientUnits="userSpaceOnUse"><stop id="stop54005" offset="0" stop-color="#198ab3"/><stop id="stop54007" offset=".09" stop-color="#1f9dc4"/><stop id="stop54009" offset=".24" stop-color="#28b5d9"/><stop id="stop54011" offset=".4" stop-color="#2dc6e9"/><stop id="stop54013" offset=".57" stop-color="#31d1f2"/><stop id="stop54015" offset=".78" stop-color="#32d4f5"/></linearGradient><linearGradient id="f9b1bb8c-728e-4abf-bce5-6c11ac170c5b" x1="8.36" x2="8.36" y1="11.35" y2="14.46" gradientUnits="userSpaceOnUse"><stop id="stop54018" offset="0" stop-color="#c69aeb"/><stop id="stop54020" offset="1" stop-color="#6f4bb2"/></linearGradient></defs><title id="title54025">Icon-web-42</title><path id="path54027" d="M 13.68,4.7110725 A 4.85,4.85 0 0 0 8.73,0.00107249 5,5 0 0 0 3.98,3.2910725 a 4.61,4.61 0 0 0 -3.98,4.53 4.67,4.67 0 0 0 4.79,4.4999995 3,3 0 0 0 0.42,0 h 1.2 a 1.47,1.47 0 0 1 -0.11,-0.56 v 0 a 1.51,1.51 0 0 1 0.2,-0.73 H 5.1 4.79 a 3.41,3.41 0 0 1 -3.52,-3.2099995 3.33,3.33 0 0 1 2.91,-3.27 l 0.76,-0.12 0.25,-0.73 a 3.73,3.73 0 0 1 3.54,-2.43 3.6,3.6 0 0 1 3.68,3.45 v 1.1 l 1.09,0.15 a 2.59,2.59 0 0 1 2.26,2.49 2.63,2.63 0 0 1 -2.62,2.5399995 h -0.15 -0.08 -1 a 3.92,3.92 0 0 0 -3.87,-3.1799995 0.64,0.64 0 1 0 0,1.27 2.65,2.65 0 0 1 0,5.2899995 0.64,0.64 0 1 0 0,1.27 3.92,3.92 0 0 0 3.87,-3.34 h 1.05 a 0.64,0.64 0 0 0 0.2,0 3.91,3.91 0 0 0 3.84,-3.8499995 3.86,3.86 0 0 0 -3.32,-3.75 z" style="fill:url(#bf8a9583-aae9-48ff-87d8-fb8f44e7d6bd)"/><rect id="rect54029" width="3.12" height="3.12" x="6.3" y="10.171" rx="1.54" style="fill:url(#f9b1bb8c-728e-4abf-bce5-6c11ac170c5b)"/><metadata id="metadata54031"/></svg>