<svg xmlns="http://www.w3.org/2000/svg" xmlns:svg="http://www.w3.org/2000/svg" id="b62fe53d-d102-488e-bedf-3b7a48aa14bf" width="16.82" height="18.112" version="1.1" viewBox="0 0 16.82 18.112"><defs id="defs31328"><linearGradient id="bbaa244d-7a73-4def-ae33-b68783fa5b51" x1="9" x2="9" y1="15.63" y2="-2.51" gradientTransform="translate(-0.59,-0.20750496)" gradientUnits="userSpaceOnUse"><stop id="stop31306" offset="0" stop-color="#0078d4"/><stop id="stop31308" offset=".16" stop-color="#1380da"/><stop id="stop31310" offset=".53" stop-color="#3c91e5"/><stop id="stop31312" offset=".82" stop-color="#559cec"/><stop id="stop31314" offset="1" stop-color="#5ea0ef"/></linearGradient><linearGradient id="fa74d148-d6d0-4c75-94f7-94732b8c62b0" x1="12.26" x2="12.26" y1="7.17" y2="17.21" gradientTransform="translate(-0.59,-0.20750496)" gradientUnits="userSpaceOnUse"><stop id="stop31317" offset="0" stop-color="#ffd70f"/><stop id="stop31319" offset=".27" stop-color="#ffd310"/><stop id="stop31321" offset=".54" stop-color="#ffc613"/><stop id="stop31323" offset=".83" stop-color="#feb217"/><stop id="stop31325" offset="1" stop-color="#fea11b"/></linearGradient></defs><title id="title31330">Icon-integration-219</title><path id="path31332" fill="url(#bbaa244d-7a73-4def-ae33-b68783fa5b51)" d="m 16.82,8.192495 a 3.77,3.77 0 0 0 -3.28,-3.63 A 4.76,4.76 0 0 0 8.63,0.00249504 4.92,4.92 0 0 0 3.94,3.192495 a 4.48,4.48 0 0 0 -3.94,4.33 4.58,4.58 0 0 0 4.74,4.4 2.75,2.75 0 0 0 0.41,0 h 7.67 a 0.64,0.64 0 0 0 0.2,0 3.82,3.82 0 0 0 3.8,-3.73 z" style="fill:url(#bbaa244d-7a73-4def-ae33-b68783fa5b51)"/><path id="ba7b3762-4752-4c4a-8a7e-af4c5e383796" fill="#76bc2d" d="m 7.55,15.792495 v -0.6 0 l -0.61,-0.21 -0.16,-0.41 0.31,-0.62 v -0.07 l -0.19,-0.19 -0.23,-0.23 H 6.59 l -0.6,0.3 -0.41,-0.11 -0.26,-0.67 H 4.73 v 0 l -0.2,0.61 -0.45,0.2 -0.67,-0.38 -0.44,0.38 v 0.08 l 0.3,0.59 -0.17,0.41 -0.69,0.3 v 0.62 H 2.5 l 0.63,0.21 0.17,0.41 -0.32,0.69 0.42,0.42 h 0.08 l 0.6,-0.3 0.41,0.17 0.26,0.72 h 0.59 v -0.09 l 0.21,-0.63 0.4,-0.17 0.7,0.32 0.42,-0.42 v -0.08 l -0.3,-0.59 0.11,-0.42 z m -2.51,0.55 a 0.84,0.84 0 1 1 0.83,-0.84 v 0 a 0.84,0.84 0 0 1 -0.83,0.8 z"/><path id="bff6fc37-370d-4b52-9427-43a5a5385267" fill="url(#fa74d148-d6d0-4c75-94f7-94732b8c62b0)" d="m 16.69,12.432495 v -1.17 l -0.06,-0.05 -1.22,-0.42 -0.31,-0.8 0.62,-1.2 0.06,-0.13 -0.37,-0.4 -0.44,-0.47 -0.16,0.08 -1.17,0.6 -0.8,-0.23 -0.51,-1.3 h -1.16 l -0.06,0.06 -0.4,1.19 -0.82,0.31 -1.35,-0.64 -0.82,0.82 0.08,0.16 0.61,1.16 -0.33,0.8 -1.41,0.51 v 1.17 l 0.17,0.05 1.24,0.41 0.33,0.85 -0.64,1.35 0.82,0.83 0.16,-0.07 1.17,-0.6 0.8,0.33 0.51,1.41 h 1.18 v -0.25 l 0.41,-1.24 0.79,-0.33 1.37,0.63 0.82,-0.82 -0.08,-0.16 -0.57,-1.08 0.23,-0.82 z m -4.91,1.08 a 1.64,1.64 0 1 1 1.63,-1.65 v 0 a 1.65,1.65 0 0 1 -1.63,1.65 z" style="fill:url(#fa74d148-d6d0-4c75-94f7-94732b8c62b0)"/><path id="path31336" fill="#fff" d="m 11.78,13.512495 a 1.64,1.64 0 1 1 1.63,-1.65 v 0 a 1.65,1.65 0 0 1 -1.63,1.65 z"/><metadata id="metadata31421"/></svg>