<svg xmlns="http://www.w3.org/2000/svg" xmlns:svg="http://www.w3.org/2000/svg" id="svg27889" width="17.262" height="17.86" version="1.1" viewBox="0 0 17.262 17.86"><defs id="defs27873"><linearGradient id="a16adbb9-578e-482b-adfc-4d82cc09754e" x1="8.011" x2="8.011" y1="6.499" y2="19.191" gradientTransform="translate(-0.36868672,-0.07099962)" gradientUnits="userSpaceOnUse"><stop id="stop27846" offset=".225" stop-color="#32d4f5"/><stop id="stop27848" offset=".473" stop-color="#31d1f3"/><stop id="stop27850" offset=".633" stop-color="#2ec9eb"/><stop id="stop27852" offset=".999" stop-color="#198ab3"/><stop id="stop27854" offset="1" stop-color="#198ab3"/></linearGradient><linearGradient id="aee8c9ca-fb88-4033-9f01-0af417440dda" x1="7.649" x2="8.575" y1="-.304" y2="11.219" gradientTransform="translate(-0.36868672,-0.07099962)" gradientUnits="userSpaceOnUse"><stop id="stop27857" offset=".225" stop-color="#32d4f5"/><stop id="stop27859" offset=".473" stop-color="#31d1f3"/><stop id="stop27861" offset=".633" stop-color="#2ec9eb"/><stop id="stop27863" offset=".999" stop-color="#198ab3"/><stop id="stop27865" offset="1" stop-color="#198ab3"/></linearGradient><linearGradient id="a9bad8b8-57b0-4671-9bb7-bde0d12c5e5b" x1="14.349" x2="14.349" y1="17.929" y2="13.063" gradientTransform="translate(-0.36868672,-0.07099962)" gradientUnits="userSpaceOnUse"><stop id="stop27868" offset="0" stop-color="#a67af4"/><stop id="stop27870" offset=".999" stop-color="#773adc"/></linearGradient></defs><path id="path27875" fill="url(#a16adbb9-578e-482b-adfc-4d82cc09754e)" d="m 13.921313,16.829 a 1.358,1.358 0 0 0 1.364,-1.354 1.488,1.488 0 0 0 -0.009,-0.164 c -0.534,-4.272 -2.972,-7.7509996 -7.6219997,-7.7509996 -4.731,0 -7.17200002,2.9459996 -7.64700002,7.7619996 a 1.366,1.366 0 0 0 1.21900002,1.5 c 0.045,0 0.091,0.007 0.137,0.007 z" style="fill:url(#a16adbb9-578e-482b-adfc-4d82cc09754e)"/><path id="path27877" fill="#fff" d="m 7.6543133,8.5730004 a 4.262,4.262 0 0 1 -2.323,-0.683 l 2.3,5.9999996 2.281,-5.9609996 a 4.256,4.256 0 0 1 -2.258,0.644 z" opacity=".8"/><circle id="circle27879" cx="7.654" cy="4.287" r="4.287" fill="url(#aee8c9ca-fb88-4033-9f01-0af417440dda)" style="fill:url(#aee8c9ca-fb88-4033-9f01-0af417440dda)"/><path id="f44074e4-c42e-42c6-8df9-7a396ecfe859" fill="url(#a9bad8b8-57b0-4671-9bb7-bde0d12c5e5b)" d="m 15.809313,12.992 a 2.7,2.7 0 0 1 -3.609,0 l -0.224,4.48 a 0.356,0.356 0 0 0 0.609,0.268 l 1.4,-0.887 1.389,0.9 a 0.356,0.356 0 0 0 0.61,-0.264 z" style="fill:url(#a9bad8b8-57b0-4671-9bb7-bde0d12c5e5b)"/><ellipse id="a1389c58-3ec0-4325-aa99-bedaec9edf9e" cx="14.041" cy="10.696" fill="#a67af4" rx="3.221" ry="3.232"/><ellipse id="a2a2e69d-d43b-4ef8-b3dd-f3eae8b8900d" cx="14.041" cy="10.696" fill="#ffe452" rx="2.444" ry="2.452"/></svg>