<svg xmlns="http://www.w3.org/2000/svg" xmlns:svg="http://www.w3.org/2000/svg" id="uuid-fdd7680e-8ace-441a-8a3a-73410c3b1f21" width="18" height="16.122" version="1.1" viewBox="0 0 18 16.122"><defs id="defs22"><linearGradient id="uuid-38c07977-ab9a-48eb-a668-cda3102bbd85" x1="7.697" x2="14.082" y1="779.168" y2="786.631" gradientTransform="matrix(1,0,0,-1,0,791.516)" gradientUnits="userSpaceOnUse"><stop id="stop2" offset="0" stop-color="#225086"/><stop id="stop4" offset="1" stop-color="#0055c5"/></linearGradient><linearGradient id="uuid-aed4a7bc-b380-4c34-b841-2d0f34d24f17" x1="6.364" x2="6.364" y1="778.164" y2="794.412" gradientTransform="matrix(1,0,0,-1,0,791.516)" gradientUnits="userSpaceOnUse"><stop id="stop7" offset="0" stop-color="#6df"/><stop id="stop9" offset="1" stop-color="#0294e4"/></linearGradient><linearGradient id="uuid-e2a7b7f2-bf16-4a76-ba27-7d149ab8a194" x1="9.001" x2="9.001" y1="775.956" y2="794.845" gradientTransform="matrix(1,0,0,-1,0,791.516)" gradientUnits="userSpaceOnUse"><stop id="stop12" offset="0" stop-color="#44dbf9"/><stop id="stop14" offset="1" stop-color="#cbf8ff"/></linearGradient><linearGradient id="uuid-c67f3364-071c-41f9-a175-d3de1f837e0a" x1="13.5" x2="13.5" y1="774.721" y2="790.782" gradientTransform="matrix(1,0,0,-1,0,791.516)" gradientUnits="userSpaceOnUse"><stop id="stop17" offset="0" stop-color="#041642"/><stop id="stop19" offset="1" stop-color="#041642" stop-opacity=".25"/></linearGradient></defs><g id="g32" transform="translate(-3.6435589e-6,-0.938)"><path id="path24" fill="url(#uuid-38c07977-ab9a-48eb-a668-cda3102bbd85)" stroke-width="0" d="m 17.647,9.906 -7.5,-8.461 C 9.548,0.769 8.453,0.769 7.853,1.445 l -7.5,8.461 c -0.579,0.654 -0.428,1.641 0.323,2.111 l 7.499,4.688 c 0.5,0.313 1.148,0.313 1.648,0 l 7.499,-4.688 c 0.751,-0.469 0.902,-1.457 0.323,-2.111 v 0 z" style="fill:url(#uuid-38c07977-ab9a-48eb-a668-cda3102bbd85)"/><path id="path26" fill="url(#uuid-aed4a7bc-b380-4c34-b841-2d0f34d24f17)" stroke-width="0" d="M 10.148,1.445 C 9.549,0.769 8.454,0.769 7.854,1.445 l -7.5,8.461 c -0.579,0.654 -0.428,1.641 0.323,2.111 0,0 2.776,1.735 3.126,1.954 0.388,0.242 1.033,0.511 1.715,0.511 0.621,0 1.197,-0.18 1.676,-0.487 0,0 0,0 0.002,-10e-4 L 9,12.866 4.636,10.138 9.11,5.091 c 0.55,-0.627 1.377,-1.026 2.302,-1.026 0.472,0 0.917,0.107 1.314,0.292 L 10.147,1.448 V 1.446 Z" style="fill:url(#uuid-aed4a7bc-b380-4c34-b841-2d0f34d24f17)"/><polygon id="polygon28" fill="url(#uuid-e2a7b7f2-bf16-4a76-ba27-7d149ab8a194)" stroke-width="0" points="9.001 12.866 9.001 12.866 13.365 10.138 13.366 10.138 13.365 10.138 9.001 5.214 4.636 10.138 4.688 10.17" style="fill:url(#uuid-e2a7b7f2-bf16-4a76-ba27-7d149ab8a194)"/><path id="path30" fill="url(#uuid-c67f3364-071c-41f9-a175-d3de1f837e0a)" fill-opacity=".5" stroke-width="0" d="m 9.001,16.939 c 0.287,0 0.574,-0.078 0.824,-0.234 l 7.499,-4.688 c 0.751,-0.469 0.902,-1.457 0.323,-2.111 L 10.148,1.445 C 9.848,1.107 9.425,0.938 9.001,0.938 Z" isolation="isolate" opacity=".5" style="fill:url(#uuid-c67f3364-071c-41f9-a175-d3de1f837e0a)"/></g><g id="g38" transform="translate(-3.6435589e-6,-0.938)"><path id="uuid-f6648d86-048a-4f40-a6df-7ce120116a98" fill="#ffca00" stroke-width="0" d="m 16.512,10.831 c 0.464,-0.458 0.468,-1.206 0.01,-1.67 -0.003,-0.003 -0.006,-0.006 -0.01,-0.01 v 0 L 14.477,7.116 c -0.461,-0.461 -1.208,-0.461 -1.669,0 v 0 l -2.035,2.035 c -0.456,0.467 -0.456,1.213 0,1.679 l 1.7,1.7 c 0.061,0.063 0.094,0.147 0.092,0.234 v 3.155 c -0.003,0.108 0.041,0.213 0.122,0.285 l 0.773,0.773 c 0.095,0.104 0.255,0.112 0.359,0.017 0.006,-0.005 0.012,-0.011 0.017,-0.017 l 0.743,-0.743 v 0 l 0.448,-0.448 c 0.058,-0.059 0.058,-0.154 0,-0.214 l -0.316,-0.315 c -0.067,-0.059 -0.074,-0.162 -0.014,-0.23 0.005,-0.005 0.009,-0.01 0.014,-0.014 l 0.316,-0.316 c 0.059,-0.063 0.059,-0.161 0,-0.224 l -0.316,-0.316 c -0.065,-0.054 -0.073,-0.15 -0.019,-0.215 0.006,-0.007 0.012,-0.013 0.019,-0.019 l 0.316,-0.326 c 0.058,-0.059 0.058,-0.154 0,-0.214 l -0.448,-0.448 v -0.163 l 1.934,-1.944 z m -2.87,-3.226 c 0.371,0 0.672,0.301 0.672,0.672 0,0.371 -0.301,0.672 -0.672,0.672 -0.371,0 -0.672,-0.301 -0.672,-0.672 v 0 c 0,-0.371 0.301,-0.672 0.672,-0.672 z"/><path id="uuid-e1697bf4-8e5d-4d62-90c9-6569d79d4944" fill="#ff9300" stroke-width="0" d="m 13.133,16.042 v 0 c 0.055,0.057 0.145,0.058 0.201,0.003 0.031,-0.03 0.047,-0.072 0.043,-0.115 v -2.605 c 0.002,-0.051 -0.021,-0.1 -0.061,-0.132 v 0 c -0.064,-0.045 -0.153,-0.03 -0.199,0.034 -0.02,0.029 -0.029,0.064 -0.025,0.098 v 2.555 c -0.02,0.058 -0.004,0.122 0.041,0.163 z" isolation="isolate" opacity=".75"/><rect id="uuid-c930d4c2-9f41-48c7-adf7-acbd73af6fbf" width="3.348" height=".397" x="12.014" y="9.834" fill="#ff9300" stroke-width="0" isolation="isolate" opacity=".75" rx=".183" ry=".183"/><rect id="uuid-755aaa46-8b89-45f5-9da0-8a42782c5ddd" width="3.348" height=".397" x="12.014" y="10.475" fill="#ff9300" stroke-width="0" isolation="isolate" opacity=".75" rx=".183" ry=".183"/></g></svg>