<svg xmlns="http://www.w3.org/2000/svg" xmlns:svg="http://www.w3.org/2000/svg" id="abd0f203-bb3f-40b1-aa70-d3c4523b69e9" width="14.72" height="17.998" version="1.1" viewBox="0 0 14.72 17.998"><defs id="defs63767"><linearGradient id="bf34fd15-2ab2-49bf-80d2-731c19b20dc3" x1="9" x2="9" y1="1.36" y2="17.87" gradientUnits="userSpaceOnUse"><stop id="stop63762" offset=".18" stop-color="#5ea0ef"/><stop id="stop63764" offset="1" stop-color="#0078d4"/></linearGradient></defs><title id="title63769">Icon-networking-72</title><path id="path63771" d="m 14.72,8.4 c 0,4.84 -5.85,8.74 -7.12,9.53 a 0.46,0.46 0 0 1 -0.48,0 C 5.85,17.14 1.2845085e-8,13.24 1.2845085e-8,8.4 V 2.58 A 0.46,0.46 0 0 1 0.45000001,2.12 C 5,2 3.95,0 7.36,0 c 3.41,0 2.36,2 6.91,2.12 a 0.46,0.46 0 0 1 0.45,0.46 z" style="fill:#0078d4"/><path id="path63773" d="m 14.11,8.45 c 0,4.44 -5.36,8 -6.53,8.74 a 0.43,0.43 0 0 1 -0.44,0 C 5.97,16.47 0.61000001,12.89 0.61000001,8.45 V 3.11 A 0.42,0.42 0 0 1 1.02,2.69 C 5.19,2.58 4.23,0.75 7.36,0.75 c 3.13,0 2.17,1.83 6.34,1.94 a 0.42,0.42 0 0 1 0.41,0.42 z" style="fill:url(#bf34fd15-2ab2-49bf-80d2-731c19b20dc3)"/><path id="path63775" d="M 10.16,12.52 A 0.48,0.48 0 0 1 9.68,13 H 5.04 A 0.48,0.48 0 0 1 4.56,12.52 V 3.94 A 0.48,0.48 0 0 1 5.04,3.45 h 4.64 a 0.48,0.48 0 0 1 0.48,0.49 z" style="fill:#e6e6e6"/><path id="path63777" d="m 5.36,5 a 0.6,0.6 0 0 1 0.6,-0.6 h 2.8 A 0.6,0.6 0 0 1 9.36,5 V 5 A 0.6,0.6 0 0 1 8.76,5.61 H 5.96 A 0.6,0.6 0 0 1 5.36,5 Z" style="fill:#003067"/><circle id="circle63779" cx="5.99" cy="4.99" r=".41" style="fill:#50e6ff"/><path id="path63781" d="m 5.36,6.9 a 0.61,0.61 0 0 1 0.6,-0.61 h 2.8 a 0.61,0.61 0 0 1 0.6,0.61 v 0 A 0.6,0.6 0 0 1 8.76,7.51 H 5.96 A 0.6,0.6 0 0 1 5.36,6.9 Z" style="fill:#003067"/><circle id="circle63783" cx="5.99" cy="6.9" r=".41" style="fill:#50e6ff"/><metadata id="metadata63785"/></svg>