<svg xmlns="http://www.w3.org/2000/svg" xmlns:svg="http://www.w3.org/2000/svg" xmlns:xlink="http://www.w3.org/1999/xlink" id="ab710ba7-dc8c-44ce-a68e-af65dd6b465a" width="17.997" height="13.989" version="1.1" viewBox="0 0 17.997 13.989"><defs id="defs3242"><radialGradient id="b210fef1-ee7a-4212-8ad5-889a65ff931d" cx="3.123" cy="4.657" r="9.718" gradientTransform="matrix(0.503,0.865,-1.218,0.708,7.2212055,-3.345)" gradientUnits="userSpaceOnUse"><stop id="stop3219" offset="0" stop-color="#9cebff"/><stop id="stop3221" offset=".667" stop-color="#50e6ff"/><stop id="stop3223" offset="1" stop-color="#32bedd"/></radialGradient><radialGradient id="e102a97b-e738-4979-86be-818045b879fc" cx="1.882" cy="4.104" r="18.407" gradientUnits="userSpaceOnUse"><stop id="stop3226" offset="0" stop-color="#e7f9ff"/><stop id="stop3228" offset=".277" stop-color="#c3f1ff"/><stop id="stop3230" offset=".408" stop-color="#c1f1ff"/><stop id="stop3232" offset="1" stop-color="#9cebff"/></radialGradient><linearGradient id="ac3e9f05-f9fa-46bf-92ca-671f9290027f" x1="15.15" x2="3.77" y1="4.602" y2="17.361" gradientTransform="translate(-0.00279454,-2.005)" gradientUnits="userSpaceOnUse"><stop id="stop3235" offset="0" stop-color="#0078d4"/><stop id="stop3237" offset=".712" stop-color="#005ba1"/><stop id="stop3239" offset="1" stop-color="#003067"/></linearGradient><radialGradient id="radialGradient3339" cx="1.882" cy="4.104" r="18.407" gradientTransform="translate(-0.00279454,-2.005)" gradientUnits="userSpaceOnUse" xlink:href="#e102a97b-e738-4979-86be-818045b879fc"/><radialGradient id="radialGradient3341" cx="1.882" cy="4.104" r="18.407" gradientTransform="translate(-0.00279454,-2.005)" gradientUnits="userSpaceOnUse" xlink:href="#e102a97b-e738-4979-86be-818045b879fc"/><radialGradient id="radialGradient3343" cx="1.882" cy="4.104" r="18.407" gradientTransform="translate(-0.00279454,-2.005)" gradientUnits="userSpaceOnUse" xlink:href="#e102a97b-e738-4979-86be-818045b879fc"/></defs><path id="path3244" fill="url(#b210fef1-ee7a-4212-8ad5-889a65ff931d)" d="m 5.7822055,11.074 c 0,0 -1.66,-0.57 0.253,-2.059 A 12.017,12.017 0 0 1 11.824205,7.021 l 1.765,-3.454 A 17.1,17.1 0 0 0 5.9822055,4.213 c -3.894,1.355 -7.785,5.6 -5.08500004,7.81 A 4.391,4.391 0 0 0 5.7822055,11.074 Z" style="fill:url(#b210fef1-ee7a-4212-8ad5-889a65ff931d)"/><path id="path3246" fill="url(#e102a97b-e738-4979-86be-818045b879fc)" d="M 8.3972055,7.785 V 5.379 a 0.475,0.475 0 0 1 0.475,-0.475 h 0.316 a 0.862,0.862 0 1 0 0,-0.372 h -0.321 a 0.848,0.848 0 0 0 -0.847,0.847 v 1.509 h -0.6 a 0.862,0.862 0 1 0 0,0.372 h 0.6 v 0.661 c 0.122,-0.047 0.246,-0.092 0.377,-0.136 z M 10.029205,4.227 A 0.491,0.491 0 1 1 9.5392055,4.718 0.491,0.491 0 0 1 10.024205,4.227 Z M 6.5792055,7.564 a 0.491,0.491 0 1 1 0.491,-0.49 0.491,0.491 0 0 1 -0.491,0.49 z" style="fill:url(#radialGradient3339)"/><path id="path3248" fill="url(#e102a97b-e738-4979-86be-818045b879fc)" d="M 3.3212055,8.195 H 0.69120546 c -0.08,0.124 -0.152,0.248 -0.219,0.372 H 3.3212055 a 0.848,0.848 0 0 0 0.847,-0.847 V 7.513 a 0.863,0.863 0 1 0 -0.372,0 v 0.206 a 0.475,0.475 0 0 1 -0.475,0.476 z m 0.17,-1.522 a 0.491,0.491 0 1 1 0.491,0.491 0.492,0.492 0 0 1 -0.491,-0.492 z" style="fill:url(#radialGradient3341)"/><path id="path3250" fill="url(#e102a97b-e738-4979-86be-818045b879fc)" d="m 5.1162055,10.256 h -0.812 a 0.863,0.863 0 1 0 0,0.372 h 0.9 a 0.642,0.642 0 0 1 -0.088,-0.372 z m -1.654,0.677 a 0.491,0.491 0 1 1 0.491,-0.491 0.491,0.491 0 0 1 -0.491,0.491 z" style="fill:url(#radialGradient3343)"/><path id="path3252" fill="url(#ac3e9f05-f9fa-46bf-92ca-671f9290027f)" d="M 0.89720546,12.023 C 7.1642055,15.833 13.244205,14.587 17.888205,4.007 a 1.315,1.315 0 0 0 0.109,-0.532 V 0.331 A 0.331,0.331 0 0 0 17.667205,0 h -3.013 a 0.708,0.708 0 0 0 -0.621,0.435 c -3.13,8.843 -10.6479995,12.687 -13.13599954,11.588 z" style="fill:url(#ac3e9f05-f9fa-46bf-92ca-671f9290027f)"/></svg>