<svg xmlns="http://www.w3.org/2000/svg" xmlns:svg="http://www.w3.org/2000/svg" id="svg18386" width="18" height="17.028" version="1.1" viewBox="0 0 18 17.028"><defs id="defs18367"><linearGradient id="eaab862f-d5c6-4926-83e4-0adf73ca7db0" x1="9" x2="9" y1="9.387" y2=".486" gradientTransform="translate(0,0.48611182)" gradientUnits="userSpaceOnUse"><stop id="stop18353" offset="0" stop-color="#773adc"/><stop id="stop18355" offset=".229" stop-color="#8952e5"/><stop id="stop18357" offset=".55" stop-color="#9e6ff0"/><stop id="stop18359" offset=".735" stop-color="#a67af4"/></linearGradient><linearGradient id="afc223ac-f563-4c00-a62e-e2bc9c53b148" x1="9" x2="9" y1="17.514" y2="11.713" gradientTransform="translate(0,0.48611182)" gradientUnits="userSpaceOnUse"><stop id="stop18362" offset="0" stop-color="#773adc"/><stop id="stop18364" offset=".735" stop-color="#a67af4"/></linearGradient></defs><title id="title18369">MsPortalFx.base.images-28</title><g id="a31aa9c1-08d3-4ffe-a43f-26cfae7c34c3" transform="translate(0,-0.48611182)"><g id="g18381"><path id="path18371" d="M 5.1,4.213 8.7,0.612 a 0.43,0.43 0 0 1 0.608,0 l 3.6,3.6 A 0.192,0.192 0 0 1 12.773,4.54 h -2.218 a 0.191,0.191 0 0 0 -0.192,0.191 v 4.5 A 0.154,0.154 0 0 1 10.21,9.384 H 7.79 A 0.154,0.154 0 0 1 7.637,9.231 v -4.5 A 0.191,0.191 0 0 0 7.445,4.54 H 5.23 A 0.192,0.192 0 0 1 5.1,4.213 Z" style="fill:url(#eaab862f-d5c6-4926-83e4-0adf73ca7db0)"/><rect id="rect18373" width="18" height="5.801" x="0" y="11.713" rx=".581" style="fill:url(#afc223ac-f563-4c00-a62e-e2bc9c53b148)"/><rect id="rect18375" width="3.012" height="3.012" x="2.995" y="13.182" rx=".245" style="fill:#fff"/><rect id="rect18377" width="3.012" height="3.012" x="7.494" y="13.182" rx=".245" style="fill:#b4ec36"/><rect id="rect18379" width="3.012" height="3.012" x="11.993" y="13.182" rx=".245" style="fill:#b4ec36"/></g></g><metadata id="metadata18384"/></svg>