<svg xmlns="http://www.w3.org/2000/svg" xmlns:svg="http://www.w3.org/2000/svg" id="Layer_1" width="17" height="16.9" x="0" y="0" version="1.1" viewBox="0 0 17 16.9" xml:space="preserve"><style id="style25672" type="text/css">.st0{fill:url(#SVGID_1_)}.st1{fill:#fff}</style><title id="title25674">MsPortalFx.base.images-76</title><g id="b8796109-74b3-4e41-9593-a5e3ee23b931" transform="translate(-0.5,-0.5)"><g id="g25689"><linearGradient id="SVGID_1_" x1="9" x2="9" y1="2.5" y2="19.5" gradientTransform="matrix(1,0,0,-1,0.5,20.5)" gradientUnits="userSpaceOnUse"><stop style="stop-color:#32bedd" id="stop25676" offset="0"/><stop style="stop-color:#32c9e9" id="stop25678" offset=".226"/><stop style="stop-color:#32d1f2" id="stop25680" offset=".547"/><stop style="stop-color:#32d4f5" id="stop25682" offset="1"/></linearGradient><path id="path25685" d="M 17.5,9.9 V 8 L 17.2,7.9 15.1,7.2 14.6,5.9 15.7,3.7 14.3,2.3 14,2.4 12.1,3.4 10.8,2.9 9.9,0.5 H 8 L 7.9,0.8 7.2,2.8 5.9,3.4 3.7,2.3 2.3,3.7 2.4,4 3.4,5.9 2.9,7.2 0.5,8.1 V 10 l 0.3,0.1 2.1,0.7 0.5,1.3 -1.1,2.2 1.4,1.4 0.3,-0.1 1.9,-1 1.3,0.5 0.9,2.3 H 10 l 0.1,-0.3 0.7,-2.1 1.3,-0.5 2.2,1.1 1.4,-1.4 -0.1,-0.2 -1,-1.9 0.5,-1.3 z" class="st0" style="fill:url(#SVGID_1_)"/><path id="path25687" d="m 12.3,6.5 -0.8,0.7 c 1.1,1.2 1,3.1 -0.3,4.2 C 9.9,12.5 8.1,12.4 7,11.1 6,10 6,8.3 7,7.2 c 0,0 0.1,0 0.1,0 v 0 l 0.6,0.5 c 0,0 0.1,0 0.1,0 0,0 0,0 0,-0.1 L 7.6,5.6 C 7.6,5.5 7.5,5.5 7.4,5.5 L 5.5,5.8 c 0,0 -0.1,0 -0.1,0.1 0,0 0,0 0,0 L 6,6.4 v 0 c 0,0 0,0.1 0,0.1 v 0 c -1.4,1.7 -1.2,4.2 0.5,5.6 1.7,1.4 4.2,1.2 5.6,-0.5 1.5,-1.5 1.5,-3.7 0.2,-5.1 z" class="st1" style="fill:#fff"/></g></g><metadata id="metadata25692"/></svg>