<svg xmlns="http://www.w3.org/2000/svg" xmlns:svg="http://www.w3.org/2000/svg" id="svg27877" width="17" height="11.76" version="1.1" viewBox="0 0 17 11.76"><defs id="defs27860"><linearGradient id="f6a16bda-952e-4567-8fdb-a66e2f210003" x1="9" x2="9" y1="3.12" y2="14.88" gradientTransform="translate(0.5,3.1199999)" gradientUnits="userSpaceOnUse"><stop id="stop27847" offset="0" stop-color="#32d4f5"/><stop id="stop27849" offset=".228" stop-color="#31d0f1"/><stop id="stop27851" offset=".463" stop-color="#2cc3e6"/><stop id="stop27853" offset=".703" stop-color="#25afd4"/><stop id="stop27855" offset=".944" stop-color="#1c92ba"/><stop id="stop27857" offset="1" stop-color="#198ab3"/></linearGradient></defs><title id="title27862">MsPortalFx.base.images-74</title><g id="ae6f4164-ac1c-4313-a292-cc2c642036fa" transform="translate(-0.5,-3.1199999)"><g id="g27872"><rect id="rect27864" width="17" height="11.76" x=".5" y="3.12" rx=".572" style="fill:url(#f6a16bda-952e-4567-8fdb-a66e2f210003)"/><path id="path27866" d="M 17.463,9.912 16.235,8.8 a 1.374,1.374 0 0 0 -1.785,0 l -6.622,6.08 h 9.1 A 0.572,0.572 0 0 0 17.5,14.308 v -4.4 z" style="fill:#86d633"/><path id="path27868" d="m 15.69,14.88 -5.208,-4.731 a 1.06,1.06 0 0 0 -1.376,0 L 3.9,14.88 Z" style="fill:#b4ec36"/><path id="path27870" d="M 9,7.852 A 1.555,1.555 0 0 0 7.649,6.352 1.962,1.962 0 0 0 5.628,4.479 2.027,2.027 0 0 0 3.7,5.792 1.847,1.847 0 0 0 2.072,7.578 1.885,1.885 0 0 0 4.023,9.39 c 0.058,0 0.115,0 0.172,-0.008 H 7.354 A 0.326,0.326 0 0 0 7.437,9.37 1.575,1.575 0 0 0 9,7.852 Z" style="fill:#fff"/></g></g><metadata id="metadata27875"/></svg>