<svg xmlns="http://www.w3.org/2000/svg" xmlns:svg="http://www.w3.org/2000/svg" id="svg32966" width="13.884" height="17" version="1.1" viewBox="0 0 13.884 17"><defs id="defs32941"><linearGradient id="bcca396e-f939-4355-b7b5-51363d97cee0" x1="9" x2="9" y1="17.5" y2=".5" gradientTransform="translate(2.058,0.5)" gradientUnits="userSpaceOnUse"><stop id="stop32936" offset="0" stop-color="#0078d4"/><stop id="stop32938" offset=".817" stop-color="#5ea0ef"/></linearGradient></defs><title id="title32943">MsPortalFx.base.images-61</title><g id="b5641c8f-5957-4500-9380-ed121d5f3f80" transform="translate(-2.058,-0.5)"><g id="g32961"><g id="g32951"><path id="path32945" d="M 9.966,0.627 H 2.731 A 0.571,0.571 0 0 0 2.16,1.2 v 15.6 a 0.571,0.571 0 0 0 0.571,0.572 H 15.269 A 0.571,0.571 0 0 0 15.84,16.8 V 6.475 A 0.571,0.571 0 0 0 15.269,5.903 H 11.108 A 0.571,0.571 0 0 1 10.537,5.332 V 1.2 A 0.572,0.572 0 0 0 9.966,0.627 Z" style="fill:#fff"/><path id="path32947" d="m 9.7,1.357 v 3.919 a 1.438,1.438 0 0 0 1.436,1.438 h 3.947 v 9.929 H 2.915 V 1.357 H 9.7 M 9.978,0.5 h -7.34 a 0.581,0.581 0 0 0 -0.58,0.581 v 15.838 a 0.581,0.581 0 0 0 0.58,0.581 h 12.724 a 0.581,0.581 0 0 0 0.58,-0.581 V 6.437 a 0.58,0.58 0 0 0 -0.58,-0.58 H 11.138 A 0.58,0.58 0 0 1 10.558,5.276 V 1.081 A 0.581,0.581 0 0 0 9.978,0.5 Z" style="fill:url(#bcca396e-f939-4355-b7b5-51363d97cee0)"/><path id="path32949" d="M 15.72,5.972 10.358,0.627 v 4.355 a 0.984,0.984 0 0 0 0.978,0.99 z" style="fill:#0078d4"/></g><path id="path32953" d="m 4.639,5.231 v 3.544 a 0.285,0.285 0 0 0 0.426,0.247 l 3.1,-1.772 a 0.284,0.284 0 0 0 0,-0.494 L 5.065,4.984 A 0.285,0.285 0 0 0 4.639,5.231 Z" style="fill:#32bedd"/><rect id="rect32955" width="7.37" height=".989" x="4.588" y="10.418" rx=".444" style="fill:#5ea0ef"/><rect id="rect32957" width="7.37" height=".989" x="4.588" y="12.189" rx=".444" style="fill:#5ea0ef"/><rect id="rect32959" width="4.645" height=".989" x="4.588" y="13.961" rx=".444" style="fill:#5ea0ef"/></g></g><metadata id="metadata32964"/></svg>