<svg xmlns="http://www.w3.org/2000/svg" xmlns:svg="http://www.w3.org/2000/svg" id="b48313d9-a7f2-4a40-8505-0ac57630ad00" width="18" height="18" version="1.1" viewBox="0 0 18 18"><defs id="defs17140"><linearGradient id="ac0afb58-624a-4534-9b45-558d28fb058f" x1="4.03" x2="4.03" y1="20" y2="11.941" gradientTransform="matrix(1,0,0,-1,0,20)" gradientUnits="userSpaceOnUse"><stop id="stop17125" offset="0" stop-color="#86d633"/><stop id="stop17127" offset="1" stop-color="#76bc2d"/></linearGradient><linearGradient id="b4667b89-560e-4b9c-a374-2f6487abd4e5" x1="4.03" x2="4.03" y1="10.059" y2="2" gradientUnits="userSpaceOnUse"><stop id="stop17130" offset="0" stop-color="#86d633"/><stop id="stop17132" offset="1" stop-color="#76bc2d"/></linearGradient><linearGradient id="b94f61f9-ce51-4f58-96d0-e2e3992a685d" x1="13.97" x2="13.97" y1="10.059" y2="2" gradientUnits="userSpaceOnUse"><stop id="stop17135" offset="0" stop-color="#86d633"/><stop id="stop17137" offset="1" stop-color="#76bc2d"/></linearGradient></defs><path id="path17142" fill="#5e9624" d="m 13.971,8.059 a 0.3,0.3 0 0 1 -0.3,-0.3 v 0 A 3.433,3.433 0 0 0 10.242,4.33 0.3,0.3 0 0 1 9.942,4.03 v 0 a 0.3,0.3 0 0 1 0.3,-0.3 v 0 A 3.432,3.432 0 0 0 13.67,0.3 0.3,0.3 0 0 1 13.97,0 v 0 a 0.3,0.3 0 0 1 0.3,0.3 v 0 a 3.433,3.433 0 0 0 3.43,3.429 0.3,0.3 0 0 1 0,0.6 v 0 a 3.432,3.432 0 0 0 -3.428,3.428 0.3,0.3 0 0 1 -0.3,0.3 z"/><rect id="rect17144" width="8.059" height="8.059" x="0" y="0" fill="url(#ac0afb58-624a-4534-9b45-558d28fb058f)" rx=".6" style="fill:url(#ac0afb58-624a-4534-9b45-558d28fb058f)"/><rect id="rect17146" width="8.059" height="8.059" x="0" y="9.941" fill="url(#b4667b89-560e-4b9c-a374-2f6487abd4e5)" rx=".6" style="fill:url(#b4667b89-560e-4b9c-a374-2f6487abd4e5)"/><rect id="rect17148" width="8.059" height="8.059" x="9.941" y="9.941" fill="url(#b94f61f9-ce51-4f58-96d0-e2e3992a685d)" rx=".6" style="fill:url(#b94f61f9-ce51-4f58-96d0-e2e3992a685d)"/><path id="path17150" fill="#86d633" d="M 6.516,7.118 H 1.543 a 0.6,0.6 0 0 1 -0.6,-0.6 V 1.54 a 0.6,0.6 0 0 1 0.6,-0.6 h 4.973 a 0.6,0.6 0 0 1 0.6,0.6 v 4.976 a 0.6,0.6 0 0 1 -0.6,0.6 z m 0.6,9.339 v -4.973 a 0.6,0.6 0 0 0 -0.6,-0.6 H 1.54 a 0.6,0.6 0 0 0 -0.6,0.6 v 0 4.975 a 0.6,0.6 0 0 0 0.6,0.6 h 4.976 a 0.6,0.6 0 0 0 0.6,-0.6 v 0 z m 9.942,0 v -4.973 a 0.6,0.6 0 0 0 -0.6,-0.6 h -4.976 a 0.6,0.6 0 0 0 -0.6,0.6 v 0 4.975 a 0.6,0.6 0 0 0 0.6,0.6 h 4.973 a 0.6,0.6 0 0 0 0.605,-0.6 v -0.007 z"/></svg>