<svg xmlns="http://www.w3.org/2000/svg" xmlns:svg="http://www.w3.org/2000/svg" id="svg39305" width="18.001" height="18.001" version="1.1" viewBox="0 0 18.001 18.001"><defs id="defs39286"><linearGradient id="a64c437a-1e67-4917-b2c6-ed565684b341" x1="9" x2="9" y1="19.848" y2="-1.014" gradientTransform="rotate(45,9.0009432,8.9988246)" gradientUnits="userSpaceOnUse"><stop id="stop39279" offset="0" stop-color="#5e9624"/><stop id="stop39281" offset=".546" stop-color="#6dad2a"/><stop id="stop39283" offset=".999" stop-color="#76bc2d"/></linearGradient></defs><title id="title39288">MsPortalFx.base.images-53</title><g id="abfd8800-7f3b-41a2-9511-cff9e496f906" transform="translate(0.00105222,2.675676e-4)"><g id="g39300"><rect id="rect39290" width="13.079" height="13.079" x="2.46" y="2.46" rx=".6" transform="rotate(-45,8.999961,9.0000941)" style="fill:url(#a64c437a-1e67-4917-b2c6-ed565684b341)"/><path id="path39292" d="M 11.839,6.505 V 5.853 L 11.748,5.819 11.048,5.59 10.865,5.144 11.22,4.389 10.762,3.931 10.67,3.977 10.018,4.309 9.572,4.126 9.286,3.336 H 8.636 L 8.6,3.428 8.371,4.128 7.925,4.311 7.181,3.956 6.723,4.414 6.769,4.505 7.101,5.157 6.92,5.6 6.12,5.886 V 6.538 L 6.212,6.573 6.912,6.802 7.096,7.248 6.737,8 7.194,8.457 7.286,8.412 7.938,8.08 8.384,8.263 8.67,9.052 H 9.322 L 9.357,8.961 9.586,8.261 10.032,8.078 10.787,8.433 11.244,7.975 11.2,7.889 10.868,7.237 11.051,6.791 Z M 8.979,7.452 A 1.256,1.256 0 1 1 10.234,6.2 1.255,1.255 0 0 1 8.979,7.452 Z" style="fill:#fff"/><path id="path39294" d="M 10.512,10.914 9.719,10.9 H 9.177 L 8.787,10.894 A 1.511,1.511 0 0 0 7.337,12.2 l 0.542,0.008 a 0.949,0.949 0 0 1 0.9,-0.728 l 0.39,0.006 0.542,0.008 0.794,0.011 a 1.041,1.041 0 0 1 -0.03,2.069 L 8.75,13.549 A 0.948,0.948 0 0 1 7.872,12.796 L 7.329,12.788 a 1.511,1.511 0 0 0 1.411,1.346 l 1.726,0.025 a 1.547,1.547 0 0 0 1.478,-1.6 1.547,1.547 0 0 0 -1.432,-1.645 z" style="fill:#fff"/><path id="path39296" d="M 8.269,12.21 7.879,12.205 7.337,12.2 6.543,12.188 a 1.04,1.04 0 0 1 0.03,-2.068 l 1.725,0.025 a 0.95,0.95 0 0 1 0.879,0.753 l 0.542,0.007 A 1.513,1.513 0 0 0 8.307,9.553 L 6.581,9.528 A 1.548,1.548 0 0 0 5.1,11.13 1.548,1.548 0 0 0 6.532,12.774 l 0.793,0.011 0.543,0.008 0.389,0.006 a 1.511,1.511 0 0 0 1.45,-1.308 L 9.165,11.483 A 0.948,0.948 0 0 1 8.269,12.21 Z" style="fill:#b4ec36"/><circle id="circle39298" cx="8.979" cy="6.196" r=".85" style="fill:#b4ec36"/></g></g><metadata id="metadata39303"/></svg>