<svg xmlns="http://www.w3.org/2000/svg" xmlns:svg="http://www.w3.org/2000/svg" id="svg46603" width="16.912" height="13.599" version="1.1" viewBox="0 0 16.912 13.599"><defs id="defs46582"><linearGradient id="b761c5df-7d35-45ec-bc23-be885bc53266" x1="9" x2="9" y1="15.799" y2="5.316" gradientTransform="translate(0.544,2.2)" gradientUnits="userSpaceOnUse"><stop id="stop46577" offset="0" stop-color="#32bedd"/><stop id="stop46579" offset=".775" stop-color="#32d4f5"/></linearGradient></defs><title id="title46584">MsPortalFx.base.images-1</title><g id="f7bf1580-21b3-4768-930f-6670371e2655" transform="translate(-0.544,-2.2)"><g id="g46598"><path id="path46586" d="m 0.544,5.316 h 16.912 v 9.918 a 0.565,0.565 0 0 1 -0.565,0.565 H 1.109 A 0.565,0.565 0 0 1 0.544,15.234 Z" style="fill:url(#b761c5df-7d35-45ec-bc23-be885bc53266)"/><path id="path46588" d="m 1.112,2.2 h 15.776 a 0.565,0.565 0 0 1 0.565,0.565 v 2.55 H 0.547 V 2.766 A 0.565,0.565 0 0 1 1.112,2.2 Z" style="fill:#0078d4"/><path id="path46590" d="M 13.9,7.32 H 9.715 A 0.224,0.224 0 0 1 9.59,7.282 L 8.39,6.487 A 0.219,0.219 0 0 0 8.266,6.449 H 4.752 A 0.224,0.224 0 0 0 4.528,6.673 v 7.392 a 0.223,0.223 0 0 0 0.224,0.223 H 13.9 a 0.224,0.224 0 0 0 0.224,-0.223 V 7.544 A 0.224,0.224 0 0 0 13.9,7.32 Z" style="fill:#5ea0ef"/><rect id="rect46592" width="2.318" height=".464" x="5.154" y="6.905" rx=".098" style="fill:#fff"/><rect id="rect46594" width=".464" height=".464" x="5.154" y="6.905" rx=".067" style="fill:#0078d4"/><path id="path46596" d="M 13.9,7.309 H 9.3 A 0.225,0.225 0 0 0 9.141,7.375 L 8.402,8.114 A 0.225,0.225 0 0 1 8.243,8.18 H 4.752 A 0.224,0.224 0 0 0 4.528,8.404 v 5.65 a 0.223,0.223 0 0 0 0.224,0.223 H 13.9 a 0.224,0.224 0 0 0 0.224,-0.223 V 7.533 A 0.224,0.224 0 0 0 13.9,7.309 Z" style="opacity:.9;fill:#fff"/></g></g><metadata id="metadata46601"/></svg>