<svg xmlns="http://www.w3.org/2000/svg" xmlns:svg="http://www.w3.org/2000/svg" id="svg47793" width="16.912" height="13.599" version="1.1" viewBox="0 0 16.912 13.599"><defs id="defs47772"><linearGradient id="f6607f9a-6e3a-4339-acc9-d6f3ae1a2c0d" x1="9" x2="9" y1="15.799" y2="5.316" gradientTransform="translate(0.544,2.2)" gradientUnits="userSpaceOnUse"><stop id="stop47767" offset="0" stop-color="#a67af4"/><stop id="stop47769" offset=".775" stop-color="#b796f9"/></linearGradient></defs><title id="title47774">MsPortalFx.base.images-3</title><g id="f3784f80-3379-4e66-8e32-fca3fab0f4d7" transform="translate(-0.544,-2.2)"><g id="g47788"><path id="path47776" d="m 0.544,5.316 h 16.912 v 9.918 a 0.565,0.565 0 0 1 -0.565,0.565 H 1.109 A 0.565,0.565 0 0 1 0.544,15.234 Z" style="fill:url(#f6607f9a-6e3a-4339-acc9-d6f3ae1a2c0d)"/><path id="path47778" d="m 1.112,2.2 h 15.776 a 0.565,0.565 0 0 1 0.565,0.565 v 2.55 H 0.547 V 2.766 A 0.565,0.565 0 0 1 1.112,2.2 Z" style="fill:#773adc"/><g id="g47786"><rect id="rect47780" width="3.683" height="7.933" x="2.625" y="6.435" rx=".274" style="fill:#fff"/><rect id="rect47782" width="3.683" height="7.933" x="7.158" y="6.435" rx=".274" style="opacity:.75;fill:#fff"/><rect id="rect47784" width="3.683" height="7.933" x="11.692" y="6.435" rx=".274" style="opacity:.5;fill:#fff"/></g></g></g><metadata id="metadata47791"/></svg>