<svg xmlns="http://www.w3.org/2000/svg" xmlns:svg="http://www.w3.org/2000/svg" id="b1ee46c6-ba3c-46bc-b019-18f22bb5d20a" width="15.492" height="16.066" version="1.1" viewBox="0 0 15.492 16.066"><defs id="defs24224"><linearGradient id="b09d7f9a-69b3-43f5-ae5f-e25dbe60ead2" x1="9" x2="9" y1="1" y2="17" gradientTransform="translate(-1.2567485,-0.97124298)" gradientUnits="userSpaceOnUse"><stop id="stop24200" offset="0" stop-color="#198ab3"/><stop id="stop24202" offset=".29" stop-color="#1786b1"/><stop id="stop24204" offset=".59" stop-color="#1079ad"/><stop id="stop24206" offset=".89" stop-color="#0565a5"/><stop id="stop24208" offset="1" stop-color="#005ba1"/></linearGradient><linearGradient id="faf99971-18aa-4520-879b-e0f5be430608" x1="8.96" x2="8.96" y1="1.1" y2="16.98" gradientTransform="translate(-1.2567485,-0.97124298)" gradientUnits="userSpaceOnUse"><stop id="stop24211" offset="0" stop-color="#32d4f5"/><stop id="stop24213" offset=".23" stop-color="#31d0f1"/><stop id="stop24215" offset=".46" stop-color="#2cc3e6"/><stop id="stop24217" offset=".7" stop-color="#25afd4"/><stop id="stop24219" offset=".94" stop-color="#1c92ba"/><stop id="stop24221" offset="1" stop-color="#198ab3"/></linearGradient></defs><title id="title24226">Icon-intune-341</title><path id="b5a41e5e-621e-4e56-aaec-3e36f2ddfa5b" fill="url(#b09d7f9a-69b3-43f5-ae5f-e25dbe60ead2)" d="m 13.113252,3.198757 0.08,0.07 a 0.14,0.14 0 0 0 0.19,0 l 0.74,-0.62 1.34,-2.20999998 a 0.14,0.14 0 0 0 0,-0.17 l -0.23,-0.24 a 0.14,0.14 0 0 0 -0.17,0 l -2.11,1.42999998 -0.6,0.77 a 0.14,0.14 0 0 0 0,0.18 l 0.08,0.08 -4.3600005,4.54 -0.9,-1 -1,1 a 1.81,1.81 0 0 1 -0.43,1.51 1.57,1.57 0 0 1 -1.37,0.5 l -4.28999999,4.35 a 0.27,0.27 0 0 0 0,0.39 l 2.07999999,2.16 a 0.27,0.27 0 0 0 0.4,0 l 4.18,-4.36 a 1.72,1.72 0 0 1 0.5,-1.44 1.6,1.6 0 0 1 1.37,-0.5 l 1,-1 -0.87,-0.97 z" style="fill:url(#b09d7f9a-69b3-43f5-ae5f-e25dbe60ead2)"/><path id="path24229" fill="url(#faf99971-18aa-4520-879b-e0f5be430608)" d="m 14.843252,13.098757 -1,-1.07 -6.6800005,-6.85 v 0 l -0.33,-0.36 a 3.72,3.72 0 0 0 -0.87,-3.64 3.43,3.43 0 0 0 -3.09,-0.99999998 0.15,0.15 0 0 0 -0.08,0.24 l 1.74,1.76999998 a 0.15,0.15 0 0 1 0,0.14 l -0.42,1.81 a 0.14,0.14 0 0 1 -0.1,0.1 l -1.78,0.49 a 0.14,0.14 0 0 1 -0.14,0 l -1.68999999,-1.79 a 0.14,0.14 0 0 0 -0.24,0.09 3.63,3.63 0 0 0 0.99999999,3.18 3.37,3.37 0 0 0 3.37,0.9 l 0.06,0.07 0.38,0.39 v 0 l 7.6100005,8 a 1.58,1.58 0 0 0 2.22,0.08 l 0.08,-0.08 a 1.68,1.68 0 0 0 0.47,-1.2 1.85,1.85 0 0 0 -0.51,-1.27 z" style="fill:url(#faf99971-18aa-4520-879b-e0f5be430608)"/><metadata id="metadata24314"/></svg>