<svg xmlns="http://www.w3.org/2000/svg" xmlns:svg="http://www.w3.org/2000/svg" xmlns:xlink="http://www.w3.org/1999/xlink" id="svg1052" width="18" height="16.63" baseProfile="full" contentScriptType="text/ecmascript" contentStyleType="text/css" preserveAspectRatio="xMidYMid meet" version="1.1" viewBox="0 0 18 16.63" zoomAndPan="magnify"><defs id="defs1042"><linearGradient id="afd24f05-59be-4c06-8334-605403fb2b7b" x1="9" x2="9" y1="778.831" y2="790.831" gradientTransform="matrix(1,0,0,-1,0,791.516)" gradientUnits="userSpaceOnUse"><stop id="stop1032" offset="0" stop-color="#0078d4"/><stop id="stop1034" offset=".8" stop-color="#5ea0ef"/></linearGradient><linearGradient id="aabc180f-9b9a-4846-a6e7-4110dfc7dad5" x1="9" x2="9" y1="774.201" y2="778.831" gradientTransform="matrix(1,0,0,-1,0,791.516)" gradientUnits="userSpaceOnUse"><stop id="stop1037" offset="0" stop-color="#ccc"/><stop id="stop1039" offset="1" stop-color="#707070"/></linearGradient></defs><rect width="18" height="12" x="0" y="0" rx=".6" style="fill:url(#afd24f05-59be-4c06-8334-605403fb2b7b)"/><path style="fill:url(#aabc180f-9b9a-4846-a6e7-4110dfc7dad5)" d="M 12.61,15.63 C 10.83,15.35 10.76,14.07 10.76,12 H 7.23 c 0,2.07 -0.06,3.35 -1.84,3.63 a 1,1 0 0 0 -0.89,1 h 9 a 1,1 0 0 0 -0.89,-1 z"/><path style="opacity:.8;fill:#fff" d="M 10.109,1.494 A 0.27733959,0.27733959 0 0 0 9.974,2.032 4.107,4.107 0 1 1 5.488,3.869 L 5.599,3.946 6.378,4.489 A 0.048,0.048 0 0 0 6.428,4.433 L 6.245,2.309 A 0.048,0.048 0 0 0 6.19,2.27 L 4.2,2.915 A 0.048,0.048 0 0 0 4.166,2.982 l 0.821,0.541 0.046,0.031 a 4.647,4.647 0 1 0 5.079,-2.06 z"/><path style="fill:#fff" d="M 11.183,5.115 10.849,4.536 11.03,3.48 10.181,2.99 9.357,3.675 H 8.689 L 7.865,2.99 7.016,3.48 7.2,4.54 6.863,5.115 5.858,5.486 V 6.467 L 6.863,6.838 7.197,7.416 7.016,8.477 7.865,8.967 8.689,8.282 H 9.357 L 10.181,8.967 11.03,8.477 10.849,7.42 11.183,6.842 12.188,6.471 V 5.49 Z M 9.023,7.461 A 1.481,1.481 0 1 1 10.5,5.98 1.481,1.481 0 0 1 9.023,7.461 Z"/>​</svg>