<svg xmlns="http://www.w3.org/2000/svg" xmlns:svg="http://www.w3.org/2000/svg" id="f2f92a84-d51d-47e7-aa52-c9dc7cb4f95e" width="17" height="16.1" version="1.1" viewBox="0 0 17 16.1"><defs id="defs3758"><linearGradient id="bb7358ff-85d0-4bea-a1da-b619fa2b0e5a" x1="7.05" x2="7.05" y1="8.98" y2=".34" gradientTransform="translate(0.81999999,0.34)" gradientUnits="userSpaceOnUse"><stop id="stop3732" offset="0" stop-color="#0078d4"/><stop id="stop3734" offset="1" stop-color="#5ea0ef"/></linearGradient><linearGradient id="a518fdc9-13d3-4777-830e-8fa6d61499c0" x1="7.05" x2="7.05" y1="3.78" y2="2.4" gradientTransform="translate(0.81999999,0.34)" gradientUnits="userSpaceOnUse"><stop id="stop3737" offset="0" stop-color="#194f9b" stop-opacity="0"/><stop id="stop3739" offset=".26" stop-color="#194f9c" stop-opacity=".01"/><stop id="stop3741" offset=".41" stop-color="#18519e" stop-opacity=".05"/><stop id="stop3743" offset=".52" stop-color="#1654a2" stop-opacity=".11"/><stop id="stop3745" offset=".62" stop-color="#1457a7" stop-opacity=".21"/><stop id="stop3747" offset=".71" stop-color="#115cae" stop-opacity=".33"/><stop id="stop3749" offset=".8" stop-color="#0d62b6" stop-opacity=".47"/><stop id="stop3751" offset=".88" stop-color="#096ac0" stop-opacity=".65"/><stop id="stop3753" offset=".95" stop-color="#0472cb" stop-opacity=".85"/><stop id="stop3755" offset="1" stop-color="#0078d4"/></linearGradient></defs><path id="path3760" d="M 14.96,8.55 16.83,6.66 C 16.98,6.5 16.93,6.37 16.7,6.37 H 15.77 A 0.23,0.23 0 0 1 15.54,6.13 c 0,-1.18 -0.3,-4.47 -4.8,-4.58 A 0.23,0.23 0 0 0 10.5,1.78 v 1.14 a 0.23,0.23 0 0 0 0.25,0.23 2.75,2.75 0 0 1 3.33,3 0.23,0.23 0 0 1 -0.23,0.24 h -0.87 c -0.23,0 -0.28,0.13 -0.13,0.3 l 1.74,1.9 a 0.24,0.24 0 0 0 0.37,-0.04 z" style="fill:#949494"/><g id="g3768" transform="translate(-0.81999999,-0.34)"><rect id="rect3762" width="12.46" height="8.64" x=".82" y=".34" rx=".57" style="fill:url(#bb7358ff-85d0-4bea-a1da-b619fa2b0e5a)"/><path id="path3764" d="m 1.38,0.34 h 11.49 a 0.41,0.41 0 0 1 0.41,0.41 V 2.4 H 0.82 V 0.91 A 0.57,0.57 0 0 1 1.38,0.34 Z" style="fill:#83b9f9"/><rect id="rect3766" width="12.46" height="1.38" x=".82" y="2.4" style="fill:url(#a518fdc9-13d3-4777-830e-8fa6d61499c0)"/></g><rect id="rect3770" width="7.92" height="5.49" x="9.08" y="10.61" rx=".36" style="fill:#005ba1"/><path id="path3772" d="m 1.79,2.85 h 8.87 a 0.19,0.19 0 0 1 0.19,0.18 V 3.96 A 0.19,0.19 0 0 1 10.66,4.13 H 1.79 A 0.18,0.18 0 0 1 1.6,3.96 V 3.03 A 0.18,0.18 0 0 1 1.79,2.85 Z" style="fill:#fff"/><path id="path3774" d="m 1.79,4.66 h 8.88 a 0.17,0.17 0 0 1 0.18,0.17 V 5.76 A 0.18,0.18 0 0 1 10.67,5.94 H 1.79 A 0.18,0.18 0 0 1 1.61,5.76 V 4.87 A 0.17,0.17 0 0 1 1.79,4.66 Z" style="fill:#fff"/><path id="path3776" d="m 1.79,6.55 h 8.88 a 0.18,0.18 0 0 1 0.18,0.18 V 7.66 A 0.18,0.18 0 0 1 10.67,7.83 H 1.79 A 0.18,0.18 0 0 1 1.61,7.66 V 6.73 A 0.18,0.18 0 0 1 1.79,6.55 Z" style="fill:#fff"/><g id="g3782" transform="translate(-0.81999999,-0.34)"><rect id="rect3778" width="7.92" height="5.49" x="8.59" y="9.77" rx=".36" style="fill:#0078d4"/><path id="path3780" d="m 9,9.77 h 7.3 a 0.26,0.26 0 0 1 0.26,0.26 v 1 H 8.59 V 10.08 A 0.36,0.36 0 0 1 9,9.77 Z" style="fill:#83b9f9"/></g><path id="path3784" d="m 8.91,11.25 h 5.64 a 0.12,0.12 0 0 1 0.12,0.11 v 0.59 a 0.12,0.12 0 0 1 -0.12,0.11 H 8.91 A 0.11,0.11 0 0 1 8.79,11.95 v -0.59 a 0.11,0.11 0 0 1 0.12,-0.11 z" style="fill:#fff"/><path id="path3786" d="m 8.91,12.42 h 5.64 a 0.11,0.11 0 0 1 0.12,0.11 v 0.59 a 0.11,0.11 0 0 1 -0.12,0.11 H 8.91 A 0.12,0.12 0 0 1 8.79,13.12 v -0.59 a 0.12,0.12 0 0 1 0.12,-0.11 z" style="fill:#fff"/><path id="path3788" d="m 8.91,13.6 h 5.64 a 0.11,0.11 0 0 1 0.12,0.11 v 0.59 a 0.11,0.11 0 0 1 -0.12,0.11 H 8.91 A 0.12,0.12 0 0 1 8.79,14.3 V 13.71 A 0.12,0.12 0 0 1 8.91,13.6 Z" style="fill:#fff"/><metadata id="metadata3790"/></svg>