<svg xmlns="http://www.w3.org/2000/svg" xmlns:svg="http://www.w3.org/2000/svg" id="beb440f5-d017-4dda-989a-ddd425fce02e" width="16.89" height="18.006" version="1.1" viewBox="0 0 16.89 18.006"><defs id="defs4096"><linearGradient id="f7543904-4a89-435e-96cd-11521c829faa" x1="9" x2="9" y1="11.95" gradientUnits="userSpaceOnUse"><stop id="stop4085" offset="0" stop-color="#0078d4"/><stop id="stop4087" offset=".16" stop-color="#1380da"/><stop id="stop4089" offset=".53" stop-color="#3c91e5"/><stop id="stop4091" offset=".82" stop-color="#559cec"/><stop id="stop4093" offset="1" stop-color="#5ea0ef"/></linearGradient></defs><title id="title4098">Icon-containers-104</title><path id="path4100" d="m 16.89,8.2124895 a 3.78,3.78 0 0 0 -3.29,-3.64 A 4.77,4.77 0 0 0 8.68,0.00248954 4.91,4.91 0 0 0 4,3.1924895 a 4.52,4.52 0 0 0 -4,4.35 4.6,4.6 0 0 0 4.78,4.4600005 h 0.42 7.68 0.21 a 3.84,3.84 0 0 0 3.8,-3.7900005 z" style="fill:url(#f7543904-4a89-435e-96cd-11521c829faa)"/><path id="path4102" d="m 5.82,6.4624895 2.64,-2.59 a 0.3,0.3 0 0 1 0.43,0 l 2.57,2.59 a 0.13,0.13 0 0 1 -0.1,0.23 H 9.74 a 0.15,0.15 0 0 0 -0.14,0.14 V 10.07249 a 0.11,0.11 0 0 1 -0.11,0.11 H 7.75 a 0.11,0.11 0 0 1 -0.11,-0.11 V 6.8324895 a 0.14,0.14 0 0 0 -0.13,-0.14 h -1.6 a 0.13,0.13 0 0 1 -0.09,-0.23 z" style="fill:#f2f2f2"/><path id="path4104" d="m 13.46,11.37249 a 0.13,0.13 0 0 0 -0.09,-0.13 L 8.62,9.6524895 H 8.46 V 18.00249 h 0.13 l 4.71,-1.88 a 0.13,0.13 0 0 0 0.16,-0.12 z" style="fill:#a67af4"/><path id="path4106" d="M 8.46,9.6824895 3.95,10.51249 a 0.14,0.14 0 0 0 -0.12,0.13 v 6.23 a 0.15,0.15 0 0 0 0.11,0.14 l 4.52,0.99 a 0.13,0.13 0 0 0 0.16,-0.13 V 9.8724895 a 0.14,0.14 0 0 0 -0.16,-0.19 z" style="fill:#552f99"/><polygon id="polygon4108" points="8.49 16.98 8.49 10.65 6.92 10.92 6.92 16.73" transform="translate(-0.54,0.00248954)" style="opacity:.75;fill:#b77af4"/><polygon id="polygon4110" points="6.35 16.6 6.35 11.01 4.98 11.24 4.98 16.32" transform="translate(-0.54,0.00248954)" style="opacity:.75;fill:#b77af4"/><metadata id="metadata4112"/></svg>