<svg xmlns="http://www.w3.org/2000/svg" xmlns:svg="http://www.w3.org/2000/svg" id="f76232ac-3a76-4330-97ca-3f381bd6f190" width="14.05" height="16.7" version="1.1" viewBox="0 0 14.05 16.7"><defs id="defs7635"><linearGradient id="aa3419c0-cd8f-4ac0-8da9-8de597fd3cbf" x1="9.02" x2="9.02" y1="5.46" y2=".65" gradientTransform="translate(-1.9999091,-0.64999999)" gradientUnits="userSpaceOnUse"><stop id="stop7620" offset="0" stop-color="#198ab3"/><stop id="stop7622" offset="1" stop-color="#32d4f5"/></linearGradient><linearGradient id="a07223d6-5912-4349-a93f-23c27741ba44" x1="8.98" x2="8.98" y1="11.97" y2="7.17" gradientTransform="translate(-1.9999091,-0.64999999)" gradientUnits="userSpaceOnUse"><stop id="stop7625" offset="0" stop-color="#198ab3"/><stop id="stop7627" offset="1" stop-color="#32d4f5"/></linearGradient><linearGradient id="f8b2b35f-4e8d-49ce-8b60-0d07f0c093e9" x1="9.02" x2="9.02" y1="17.34" y2="14.32" gradientTransform="translate(-1.9999091,-0.64999999)" gradientUnits="userSpaceOnUse"><stop id="stop7630" offset="0" stop-color="#198ab3"/><stop id="stop7632" offset="1" stop-color="#32d4f5"/></linearGradient></defs><title id="title7637">Icon-other-347</title><path id="path7639" fill="#32bedd" d="m 6.4600909,4.81 h 1 v 9.6 h -1 z"/><path id="path7641" fill="url(#aa3419c0-cd8f-4ac0-8da9-8de597fd3cbf)" d="M 13.480091,0 H 0.56009092 A 0.58,0.58 0 0 0 9.0924122e-5,0.58000001 V 4.23 A 0.58,0.58 0 0 0 0.57009092,4.81 H 13.480091 a 0.57,0.57 0 0 0 0.57,-0.58 V 0.58000001 A 0.57,0.57 0 0 0 13.480091,0 Z" style="fill:url(#aa3419c0-cd8f-4ac0-8da9-8de597fd3cbf)"/><path id="path7643" fill="url(#a07223d6-5912-4349-a93f-23c27741ba44)" d="M 13.440091,6.52 H 0.52009092 A 0.57,0.57 0 0 0 9.0924122e-5,7.09 v 3.66 A 0.56,0.56 0 0 0 0.57009092,11.32 H 13.440091 a 0.57,0.57 0 0 0 0.56,-0.57 V 7.09 a 0.58,0.58 0 0 0 -0.56,-0.57 z" style="fill:url(#a07223d6-5912-4349-a93f-23c27741ba44)"/><circle id="circle7645" cx="7.06" cy="15.19" r="1.51" fill="#7fba00"/><circle id="circle7647" cx="7.02" cy="15.18" r="1.51" fill="url(#f8b2b35f-4e8d-49ce-8b60-0d07f0c093e9)" style="fill:url(#f8b2b35f-4e8d-49ce-8b60-0d07f0c093e9)"/><rect id="rect7649" width="1.05" height="1.05" x="11.72" y=".9" fill="#b4ec36" rx=".15"/><rect id="rect7651" width="1.05" height="1.05" x="11.72" y="2.71" fill="#b4ec36" rx=".15"/><rect id="rect7655" width="1.05" height="1.05" x="11.72" y="7.39" fill="#b4ec36" rx=".15"/><rect id="rect7657" width="1.05" height="1.05" x="11.72" y="9.2" fill="#b4ec36" rx=".15"/><metadata id="metadata7746"/></svg>