<svg xmlns="http://www.w3.org/2000/svg" xmlns:svg="http://www.w3.org/2000/svg" id="a9383d60-b33f-4c78-8dbe-8ab68ace6065" width="18" height="16.63" version="1.1" viewBox="0 0 18 16.63"><defs id="defs7390"><linearGradient id="a7cb4d9d-9f89-4e53-8eda-938427310066" x1="8.8" x2="8.8" y1="12.87" y2=".87" gradientUnits="userSpaceOnUse"><stop id="stop7380" offset="0" stop-color="#0078d4"/><stop id="stop7382" offset=".82" stop-color="#5ea0ef"/></linearGradient><linearGradient id="eab4c6b4-621d-4d9b-b611-15ceb58765b1" x1="8.81" x2="8.81" y1="17.5" y2="12.87" gradientUnits="userSpaceOnUse"><stop id="stop7385" offset="0" stop-color="#1490df"/><stop id="stop7387" offset=".98" stop-color="#1f56a3"/></linearGradient></defs><title id="title7392">Icon-compute-33</title><rect id="rect7394" width="18" height="12" x="0" y="0" rx=".6" style="fill:url(#a7cb4d9d-9f89-4e53-8eda-938427310066)"/><polygon id="polygon7396" points="8.8 10.37 8.8 6.87 11.8 5.12 11.8 8.61" transform="translate(0.2,-0.87)" style="fill:#50e6ff"/><polygon id="polygon7398" points="5.8 5.12 8.81 3.37 11.8 5.12 8.81 6.88" transform="translate(0.2,-0.87)" style="fill:#c3f1ff"/><polygon id="polygon7400" points="5.8 8.61 5.8 5.12 8.8 6.88 8.8 10.37" transform="translate(0.2,-0.87)" style="fill:#9cebff"/><polygon id="polygon7402" points="8.8 10.37 5.8 8.61 8.8 6.87" transform="translate(0.2,-0.87)" style="fill:#c3f1ff"/><polygon id="polygon7404" points="8.8 10.37 11.8 8.61 8.8 6.87" transform="translate(0.2,-0.87)" style="fill:#9cebff"/><path id="path7406" d="M 12.61,15.63 C 10.83,15.35 10.76,14.07 10.77,12 H 7.2 c 0,2.07 0,3.35 -1.81,3.63 a 1,1 0 0 0 -0.88,1 h 9 a 1.06,1.06 0 0 0 -0.9,-1 z" style="fill:url(#eab4c6b4-621d-4d9b-b611-15ceb58765b1)"/><path id="path7408" d="M 4.88,1.2 H 2.13 A 0.66,0.66 0 0 0 1.47,1.86 V 4.62 A 0.33,0.33 0 0 0 1.8,4.95 H 2.02 A 0.33,0.33 0 0 0 2.35,4.62 V 2.07 H 4.88 A 0.33,0.33 0 0 0 5.2,1.74 V 1.53 A 0.33,0.33 0 0 0 4.88,1.2 Z" style="fill:#fff"/><path id="path7410" d="M 4.88,9.86 H 2.34 V 7.33 A 0.33,0.33 0 0 0 2.01,7 H 1.8 A 0.33,0.33 0 0 0 1.47,7.33 v 2.8 A 0.66,0.66 0 0 0 2.13,10.8 H 4.88 A 0.34,0.34 0 0 0 5.2,10.41 V 10.19 A 0.33,0.33 0 0 0 4.88,9.86 Z" style="fill:#fff"/><path id="path7412" d="M 15.91,1.23 H 13.2 a 0.33,0.33 0 0 0 -0.33,0.33 v 0.21 a 0.33,0.33 0 0 0 0.33,0.36 h 2.53 v 2.51 a 0.33,0.33 0 0 0 0.33,0.33 h 0.23 A 0.33,0.33 0 0 0 16.62,4.64 V 1.89 A 0.66,0.66 0 0 0 15.91,1.23 Z" style="fill:#fff"/><path id="path7414" d="M 16.25,7.02 H 16.04 A 0.33,0.33 0 0 0 15.71,7.35 V 9.89 H 13.2 a 0.33,0.33 0 0 0 -0.33,0.33 v 0.22 a 0.33,0.33 0 0 0 0.33,0.33 h 2.75 a 0.67,0.67 0 0 0 0.67,-0.66 V 7.35 A 0.33,0.33 0 0 0 16.25,7.02 Z" style="fill:#fff"/><metadata id="metadata7416"/></svg>