<svg xmlns="http://www.w3.org/2000/svg" xmlns:svg="http://www.w3.org/2000/svg" id="adb2f05f-6e82-4a59-b297-bf5df98913c1" width="17.4" height="17.4" version="1.1" viewBox="0 0 17.4 17.4"><defs id="defs8337"><linearGradient id="b3b71175-b4b2-4d4c-b282-a1b49585ff21" x1="9" x2="9" y1="11.06" y2="7.53" gradientUnits="userSpaceOnUse"><stop id="stop8319" offset="0" stop-color="#e26708"/><stop id="stop8321" offset="1" stop-color="#f78d1e"/></linearGradient><linearGradient id="e17163ac-c7b0-4b80-8260-a4d7dd5757b8" x1="9" x2="9" y1="17.7" y2=".3" gradientUnits="userSpaceOnUse"><stop id="stop8324" offset="0" stop-color="#e26708"/><stop id="stop8326" offset=".005" stop-color="#e26808"/><stop id="stop8328" offset=".117" stop-color="#ec7912"/><stop id="stop8330" offset=".257" stop-color="#f28419"/><stop id="stop8332" offset=".454" stop-color="#f68b1d"/><stop id="stop8334" offset="1" stop-color="#f78d1e"/></linearGradient></defs><path id="path8339" d="M 8.7,9.4 6.2,11.9 C 6.2,11.7 6,11.5 5.9,11.3 5.8,11.1 5.7,11.1 5.6,11.1 L 8,8.7 5.4,6.1 A 1.214,1.214 0 0 0 6.1,5.4 L 8.7,8 11.3,5.4 c 0.1,0.2 0.1,0.3 0.3,0.4 A 1.38,1.38 0 0 1 12,6.1 l -2.6,2.6 2.5,2.5 A 0.87,0.87 0 0 0 11.3,12 Z" style="fill:#e27908"/><g id="g8357" transform="translate(-0.3,-0.3)"><path id="path8341" d="m 5.5,13.6 2.2,2.2 V 15.7 A 1.612,1.612 0 0 1 8.2,14.6 L 6.4,12.8 a 1.06,1.06 0 0 1 -0.9,0.8 z" style="fill:#e27908"/><path id="path8343" d="m 2.2,10.2 v 0 l 2.1,2.2 A 1,1 0 0 1 5,11.5 L 3.3,9.7 a 1.612,1.612 0 0 1 -1.1,0.5 z" style="fill:#e27908"/><path id="path8345" d="M 4.3,5.6 2.5,7.4 a 1.451,1.451 0 0 1 1,0.7 L 5.2,6.4 4.6,6.1 C 4.5,5.9 4.4,5.8 4.3,5.6 Z" style="fill:#e27908"/><path id="path8347" d="M 7.7,2.2 5.6,4.3 A 1.091,1.091 0 0 1 6.4,5.1 L 8.2,3.3 A 1.43,1.43 0 0 1 7.7,2.2 Z" style="fill:#e27908"/><path id="path8349" d="m 12.5,4.3 -2,-2 a 1.329,1.329 0 0 1 -0.6,1 l 1.8,1.8 a 1.091,1.091 0 0 1 0.8,-0.8 z" style="fill:#e27908"/><path id="path8351" d="M 15.7,7.5 13.8,5.6 A 1.091,1.091 0 0 1 13,6.4 l 1.8,1.8 a 1.111,1.111 0 0 1 0.9,-0.7 z" style="fill:#e27908"/><path id="path8353" d="m 14.8,9.8 -1.7,1.7 c 0.2,0.1 0.3,0.1 0.4,0.3 a 0.908,0.908 0 0 1 0.3,0.7 l 2.1,-2.1 A 2,2 0 0 1 14.8,9.8 Z" style="fill:#e27908"/><path id="path8355" d="m 11.7,12.9 -1.7,1.7 0.1,0.1 a 1.28,1.28 0 0 1 0.4,1 l 2.1,-2.1 a 0.908,0.908 0 0 1 -0.7,-0.3 0.762,0.762 0 0 1 -0.2,-0.4 z" style="fill:#e27908"/></g><circle id="circle8359" cx="5.1" cy="5.1" r="1.5" style="fill:#f78d1e"/><circle id="circle8361" cx="12.3" cy="5.1" r="1.5" style="fill:#f78d1e"/><circle id="circle8363" cx="5.1" cy="12.3" r="1.5" style="fill:#f78d1e"/><circle id="circle8365" cx="12.3" cy="12.3" r="1.5" style="fill:#f78d1e"/><path id="path8367" d="M 1.9,6.8 A 1.9,1.9 0 1 1 0,8.7 1.9,1.9 0 0 1 1.9,6.8 Z m 13.6,0 a 1.9,1.9 0 1 1 -1.9,1.9 1.9,1.9 0 0 1 1.9,-1.9 z" style="fill:url(#b3b71175-b4b2-4d4c-b282-a1b49585ff21)"/><path id="path8369" d="M 8.7,0 A 1.9,1.9 0 1 1 6.8,1.9 1.9,1.9 0 0 1 8.7,0 Z m 0,13.6 a 1.9,1.9 0 1 1 -1.9,1.9 1.9,1.9 0 0 1 1.9,-1.9 z" style="fill:url(#e17163ac-c7b0-4b80-8260-a4d7dd5757b8)"/><metadata id="metadata8371"/></svg>