<svg xmlns="http://www.w3.org/2000/svg" xmlns:svg="http://www.w3.org/2000/svg" id="ec6dc5e8-5958-4688-833b-f95ec061a4a8" width="18" height="16.63" version="1.1" viewBox="0 0 18 16.63"><defs id="defs9786"><linearGradient id="abe3e0fd-f5f5-4d67-8cca-cb6314d5da62" x1="8.86" x2="8.86" y1="13.02" y2="1.02" gradientUnits="userSpaceOnUse"><stop id="stop9776" offset="0" stop-color="#0078d4"/><stop id="stop9778" offset=".82" stop-color="#5ea0ef"/></linearGradient><linearGradient id="a49c2fd2-7c71-4d63-b68f-ddf5594dd0b8" x1="8.86" x2="8.86" y1="17.65" y2="13.02" gradientUnits="userSpaceOnUse"><stop id="stop9781" offset="0" stop-color="#1490df"/><stop id="stop9783" offset=".98" stop-color="#1f56a3"/></linearGradient></defs><title id="title9788">Icon-compute-28</title><rect id="rect9790" width="18" height="12" x="0" y="0" rx=".6" style="fill:url(#abe3e0fd-f5f5-4d67-8cca-cb6314d5da62)"/><rect id="rect9792" width="16" height="10" x="1" y="1" rx=".33" style="fill:#fff"/><polygon id="polygon9794" points="8.86 10.52 8.86 7.02 11.86 5.27 11.86 8.76" transform="translate(0.14,-1.02)" style="fill:#0078d4"/><polygon id="polygon9796" points="5.86 5.27 8.86 3.52 11.86 5.27 8.86 7.03" transform="translate(0.14,-1.02)" style="fill:#83b9f9"/><polygon id="polygon9798" points="5.86 8.76 5.86 5.27 8.86 7.03 8.86 10.52" transform="translate(0.14,-1.02)" style="fill:#5ea0ef"/><polygon id="polygon9800" points="8.86 10.52 5.86 8.76 8.86 7.02" transform="translate(0.14,-1.02)" style="opacity:.2;fill:#83b9f9"/><polygon id="polygon9802" points="8.86 10.52 11.86 8.76 8.86 7.02" transform="translate(0.14,-1.02)" style="opacity:.2;fill:#5ea0ef"/><path id="path9804" d="M 12.6,15.63 C 10.83,15.35 10.76,14.06 10.76,12 H 7.23 c 0,2.06 -0.07,3.35 -1.84,3.63 a 1,1 0 0 0 -0.89,1 h 9 a 1,1 0 0 0 -0.9,-1 z" style="fill:url(#a49c2fd2-7c71-4d63-b68f-ddf5594dd0b8)"/><metadata id="metadata9806"/></svg>