<svg xmlns="http://www.w3.org/2000/svg" xmlns:svg="http://www.w3.org/2000/svg" id="svg10176" width="17.03" height="14.67" version="1.1" viewBox="0 0 17.03 14.67"><defs id="defs10158"><linearGradient id="A" x1="9" x2="9" y1="-.15" y2="15.59" gradientUnits="userSpaceOnUse"><stop id="stop10152" offset=".09" stop-color="#5ea0ef"/><stop id="stop10154" offset="1" stop-color="#0078d4"/></linearGradient><path id="B" d="m 2.55,3.32 h 2.87 a 0.14,0.14 0 0 1 0.14,0.14 v 3 A 0.13,0.13 0 0 1 5.43,6.59 H 2.6 A 0.14,0.14 0 0 1 2.46,6.45 v -3 a 0.14,0.14 0 0 1 0.1,-0.13 z"/></defs><path id="path10160" d="m 0.52,4.1566773e-4 h 16 A 0.5,0.5 0 0 1 17.03,0.46041567 V 11.560416 a 0.49,0.49 0 0 1 -0.51,0.46 h -16 A 0.5,0.5 0 0 1 0,11.560416 V 0.48041567 A 0.5,0.5 0 0 1 0.52,4.1566773e-4 Z" style="fill:url(#A)"/><use id="use10162" width="100%" height="100%" x="0" y="0" href="#B" transform="translate(-0.48,-1.6495843)" style="fill:#fff"/><path id="path10164" d="m 11.39,6.6904157 2.66,1.54 2.67,1.53 a 0.16,0.16 0 0 1 0,0.2700003 l -1.78,1 1.27,2.18 a 0.88,0.88 0 0 1 -0.32,1.19 l -0.26,0.15 a 0.87,0.87 0 0 1 -1.19,-0.31 l -1.27,-2.2 -1.77,1 a 0.15,0.15 0 0 1 -0.23,-0.14 V 6.8304157 a 0.16,0.16 0 0 1 0.22,-0.14 z" style="fill:#50e6ff"/><g id="g10170" transform="translate(-0.48,-1.6495843)" style="fill:#fff"><use id="use10166" width="100%" height="100%" x="0" y="4.83" href="#B"/><path id="path10168" d="m 7.6,3.32 h 2.88 a 0.14,0.14 0 0 1 0.14,0.14 v 3 A 0.13,0.13 0 0 1 10.49,6.59 H 7.66 A 0.14,0.14 0 0 1 7.52,6.45 v -3 A 0.13,0.13 0 0 1 7.61,3.32 Z"/></g><path id="path10172" d="M 7.12,6.5004157 H 10 a 0.15,0.15 0 0 1 0.14,0.14 v 3 a 0.13,0.13 0 0 1 -0.13,0.13 H 7.18 a 0.14,0.14 0 0 1 -0.14,-0.14 v -3 a 0.13,0.13 0 0 1 0.09,-0.13 z m 5.3,-4.83 h 2.88 a 0.14,0.14 0 0 1 0.14,0.14 v 3 a 0.13,0.13 0 0 1 -0.13,0.13 h -2.84 a 0.14,0.14 0 0 1 -0.14,-0.14 v -3 a 0.13,0.13 0 0 1 0.09,-0.13 z" style="fill:#83b9f9"/><metadata id="metadata10174"/></svg>