<svg xmlns="http://www.w3.org/2000/svg" xmlns:svg="http://www.w3.org/2000/svg" id="b388e944-5509-49c9-84d7-f38bffa995b2" width="16.901" height="16.9" version="1.1" viewBox="0 0 16.901 16.9"><defs id="defs6196"><linearGradient id="a997e203-1d7d-4cb9-b131-5dc44e029b46" x1="5.23" x2="5.23" y1="17.45" y2="8.09" gradientUnits="userSpaceOnUse"><stop id="stop6180" offset="0" stop-color="#1988d9"/><stop id="stop6182" offset=".9" stop-color="#54aef0"/></linearGradient><linearGradient id="e122e9d8-aee5-4f1a-a60e-b1eae355daa5" x1="11.5" x2="11.5" y1="12.45" y2=".55" gradientUnits="userSpaceOnUse"><stop id="stop6185" offset="0" stop-color="#198ab3"/><stop id="stop6187" offset=".01" stop-color="#198bb4"/><stop id="stop6189" offset=".44" stop-color="#27b2d7"/><stop id="stop6191" offset=".79" stop-color="#2fcbed"/><stop id="stop6193" offset="1" stop-color="#32d4f5"/></linearGradient></defs><title id="title6198">Icon-manage-307</title><path id="path6200" d="m 5.04,12.580316 h 4.32 v 4.32 H 5.04 Z m -4.44,4.32 h 3.72 v -4.32 H 0 v 3.72 a 0.6,0.6 0 0 0 0.6,0.6 z m -0.6,-5 H 4.32 V 7.5403162 H 0 Z" style="fill:url(#a997e203-1d7d-4cb9-b131-5dc44e029b46)"/><path id="path6202" d="M 10.95,3.1622647e-4 A 5.89,5.89 0 0 1 16.9,6.0003162 5.89,5.89 0 0 1 10.95,11.950316 H 5 V 5.9503162 A 5.89,5.89 0 0 1 10.95,3.1622647e-4 Z" style="fill:url(#e122e9d8-aee5-4f1a-a60e-b1eae355daa5);fill-rule:evenodd"/><rect id="rect6204" width="1.36" height="4.08" x="7.04" y="5.1" style="fill:#fff"/><rect id="rect6206" width="1.36" height="2.72" x="9.76" y="6.46" style="fill:#fff"/><rect id="rect6208" width="1.36" height="5.44" x="12.48" y="3.74" style="fill:#fff"/><metadata id="metadata6210"/></svg>