<svg xmlns="http://www.w3.org/2000/svg" xmlns:svg="http://www.w3.org/2000/svg" id="a0f448ad-2648-4cd6-b442-513e4a5b2ace" width="15.39" height="16.91" version="1.1" viewBox="0 0 15.39 16.91"><defs id="defs6960"><linearGradient id="b45e255d-bffa-451b-8846-6f6c550d3933" x1="10.03" x2="10.03" y1="6.02" y2="1.92" gradientTransform="translate(-1.31,-0.54992647)" gradientUnits="userSpaceOnUse"><stop id="stop6949" offset="0" stop-color="#198ab3"/><stop id="stop6951" offset=".1" stop-color="#1c93bb"/><stop id="stop6953" offset=".7" stop-color="#2cc2e5"/><stop id="stop6955" offset="1" stop-color="#32d4f5"/></linearGradient><linearGradient id="b7f9cef7-9703-4b9c-b1cd-681c80a1857e" x1="76.432" x2="76.432" y1="105.059" y2="74.579" gradientTransform="matrix(1.7957276,0,0,0.55687733,-1.31,-0.54992647)" gradientUnits="userSpaceOnUse" href="#b45e255d-bffa-451b-8846-6f6c550d3933"/><linearGradient id="afc15d94-3b96-41df-93b4-2a0f23c10140" x1="37.323" x2="37.323" y1="67.139" y2="58.049" gradientTransform="translate(-1.31,-0.54992647)" gradientUnits="userSpaceOnUse" href="#b45e255d-bffa-451b-8846-6f6c550d3933"/></defs><title id="title6962">Icon-other-346</title><path id="path6964" fill="#198ab3" d="m 12.69,7.3533446e-5 h -12 A 0.68,0.68 0 0 0 0,0.68007353 V 3.7600735 a 0.69,0.69 0 0 0 0.69,0.69 h 12 a 0.69,0.69 0 0 0 0.69,-0.69 V 0.68007353 A 0.69,0.69 0 0 0 12.69,7.3533446e-5 Z M 12.69,6.1600735 h -12 a 0.68,0.68 0 0 0 -0.69,0.68 v 3.08 a 0.69,0.69 0 0 0 0.69,0.6900005 h 12 a 0.69,0.69 0 0 0 0.69,-0.6900005 v -3.08 a 0.68,0.68 0 0 0 -0.69,-0.68 z"/><path id="path6966" fill="#32bedd" d="m 7.84,4.4500735 h 1 V 14.710074 h -1 z"/><path id="path6968" fill="url(#b45e255d-bffa-451b-8846-6f6c550d3933)" d="M 14.82,1.3700735 H 2.61 a 0.57,0.57 0 0 0 -0.57,0.57 v 3 a 0.57,0.57 0 0 0 0.57,0.51 h 12.21 a 0.57,0.57 0 0 0 0.57,-0.57 v -3 a 0.57,0.57 0 0 0 -0.57,-0.51 z" style="fill:url(#b45e255d-bffa-451b-8846-6f6c550d3933)"/><rect id="rect6970" width="1.05" height="1.05" x="13.2" y="1.94" fill="#b4ec36" rx=".15"/><rect id="rect6972" width="1.05" height="1.05" x="13.2" y="3.75" fill="#b4ec36" rx=".15"/><path id="path6976" fill="url(#b7f9cef7-9703-4b9c-b1cd-681c80a1857e)" d="M 14.82,7.5300735 H 2.61 a 0.57,0.57 0 0 0 -0.57,0.57 v 3.0000005 a 0.57,0.57 0 0 0 0.57,0.57 h 12.21 a 0.57,0.57 0 0 0 0.57,-0.57 V 8.1000735 a 0.57,0.57 0 0 0 -0.57,-0.57 z" style="fill:url(#b7f9cef7-9703-4b9c-b1cd-681c80a1857e)"/><circle id="circle6978" cx="8.35" cy="15.4" r="1.51" fill="url(#afc15d94-3b96-41df-93b4-2a0f23c10140)" style="fill:url(#afc15d94-3b96-41df-93b4-2a0f23c10140)"/><rect id="rect6980" width="1.05" height="1.05" x="13.2" y="8.15" fill="#b4ec36" rx=".15"/><rect id="rect6982" width="1.05" height="1.05" x="13.2" y="9.96" fill="#b4ec36" rx=".15"/><metadata id="metadata7071"/></svg>