<svg xmlns="http://www.w3.org/2000/svg" xmlns:svg="http://www.w3.org/2000/svg" id="svg10140" width="17.688" height="17.266" version="1.1" viewBox="0 0 17.688 17.266"><defs id="defs10122"><linearGradient id="e99916c9-b051-498f-b46f-4f5044dbba62" x1="2594.032" x2="2594.005" y1="1204.356" y2="1194.252" gradientTransform="matrix(0.49999899,0.00100356,-0.00100356,0.49999899,-1291.098,-588.336)" gradientUnits="userSpaceOnUse"><stop id="stop10091" offset="0" stop-color="#ef7100"/><stop id="stop10093" offset="1" stop-color="#faa21d"/></linearGradient><linearGradient id="a0ed916a-7de8-4752-b310-46b03649d111" x1="15.32" x2="15.32" y1="781.498" y2="786.545" gradientTransform="matrix(1,0,0,-1,-0.15600014,791.149)" gradientUnits="userSpaceOnUse"><stop id="stop10096" offset="0" stop-color="#ef7100"/><stop id="stop10098" offset="1" stop-color="#faa21d"/></linearGradient><linearGradient id="a5d38888-21ca-4b0b-b256-879c324f8b8f" x1="2.68" x2="2.68" y1="781.498" y2="786.545" gradientTransform="matrix(1,0,0,-1,-0.15600014,791.149)" gradientUnits="userSpaceOnUse"><stop id="stop10101" offset="0" stop-color="#ef7100"/><stop id="stop10103" offset="1" stop-color="#faa21d"/></linearGradient><linearGradient id="a1de6ccd-9f87-48b1-8877-5017a5a16db6" x1="8.883" x2="8.883" y1="786.102" y2="791.149" gradientTransform="matrix(1,0,0,-1,-0.15600014,791.149)" gradientUnits="userSpaceOnUse"><stop id="stop10106" offset="0" stop-color="#ef7100"/><stop id="stop10108" offset="1" stop-color="#faa21d"/></linearGradient><linearGradient id="b66fd1a6-63c4-4aab-9757-0828eb179fa7" x1="12.368" x2="12.368" y1="17.633" y2="10.172" gradientTransform="translate(-0.15600014,-0.3670001)" gradientUnits="userSpaceOnUse"><stop id="stop10111" offset="0" stop-color="#773adc"/><stop id="stop10113" offset=".204" stop-color="#7b3fde"/><stop id="stop10115" offset=".459" stop-color="#864fe4"/><stop id="stop10117" offset=".741" stop-color="#9968ed"/><stop id="stop10119" offset=".899" stop-color="#a67af4"/></linearGradient></defs><polygon id="polygon10124" fill="#e27908" points="8.883 3.908 14.278 7.78 13.921 8.889 15.468 8.889 15.468 8.945 16.035 7.228 16.035 7.177 10.15 2.978 8.883 2.048 7.637 2.968 1.732 7.177 4.03 14.125 4.511 15.596 6.405 15.596 6.405 14.126 5.573 14.125 3.53 7.77" transform="translate(-0.15600014,-0.3670001)"/><circle id="circle10126" cx="4.712" cy="14.687" r="2.524" fill="url(#e99916c9-b051-498f-b46f-4f5044dbba62)" style="fill:url(#e99916c9-b051-498f-b46f-4f5044dbba62)"/><circle id="circle10128" cx="15.164" cy="7.127" r="2.524" fill="url(#a0ed916a-7de8-4752-b310-46b03649d111)" style="fill:url(#a0ed916a-7de8-4752-b310-46b03649d111)"/><circle id="circle10130" cx="2.524" cy="7.127" r="2.524" fill="url(#a5d38888-21ca-4b0b-b256-879c324f8b8f)" style="fill:url(#a5d38888-21ca-4b0b-b256-879c324f8b8f)"/><circle id="circle10132" cx="8.727" cy="2.524" r="2.524" fill="url(#a1de6ccd-9f87-48b1-8877-5017a5a16db6)" style="fill:url(#a1de6ccd-9f87-48b1-8877-5017a5a16db6)"/><path id="efa99d43-d35f-4e03-9f1b-ab1b8dbdefcd" fill="url(#b66fd1a6-63c4-4aab-9757-0828eb179fa7)" d="m 13.055,16.165 0.583,-0.244 1.012,0.466 0.606,-0.606 -0.059,-0.118 -0.421,-0.8 0.17,-0.606 0.968,-0.4 v -0.864 l -0.045,-0.037 -0.9,-0.31 -0.229,-0.591 0.458,-0.887 0.044,-0.1 -0.273,-0.295 -0.325,-0.34 -0.118,0.059 -0.865,0.443 -0.591,-0.17 -0.376,-0.9600001 h -0.857 l -0.045,0.044 -0.295,0.8790001 -0.606,0.229 -1.0000001,-0.473 -0.606,0.606 0.059,0.118 0.451,0.857 -0.244,0.591 -1.04,0.377 v 0.864 l 0.126,0.037 0.916,0.3 0.244,0.628 -0.473,1 0.606,0.613 0.1180001,-0.051 0.864,-0.443 0.591,0.243 0.377,1.042 h 0.872 m -0.466,-2.608 a 1.212,1.212 0 1 1 1.205,-1.219 v 0 a 1.219,1.219 0 0 1 -1.205,1.219 z" style="fill:url(#b66fd1a6-63c4-4aab-9757-0828eb179fa7)"/></svg>