<svg xmlns="http://www.w3.org/2000/svg" xmlns:svg="http://www.w3.org/2000/svg" id="b8a5deb0-257d-4029-9ed0-a02518e9a519" width="15.7" height="18" version="1.1" viewBox="0 0 15.7 18"><title id="title56511">Icon-iot-184</title><path id="path56513" d="M 7.85,0 0,4.49 v 3 L 3.05,9.34 V 7.54 L 1.45,6.62 V 5.38 l 6.4,-3.7 6.4,3.71 v 7.18 L 7.85,16.27 0,11.78 v 1.68 L 7.85,18 15.7,13.51 v -9 z" style="fill:#a3a3a3"/><polygon id="polygon56515" points="1.15 4.49 2.6 5.38 9 1.68 9 1.68 15.4 5.38 16.85 4.49 9 0" transform="translate(-1.15)" style="fill:#949494"/><polygon id="polygon56517" points="9 13.93 9 9.01 13.25 6.54 13.25 11.46" transform="translate(-1.15)" style="fill:#32bedd"/><polygon id="polygon56519" points="4.75 6.54 9 4.07 13.25 6.54 9 9.01" transform="translate(-1.15)" style="fill:#9cebff"/><polygon id="polygon56521" points="4.75 11.46 4.75 6.54 9 9.01 9 13.93" transform="translate(-1.15)" style="fill:#50e6ff"/><polygon id="polygon56523" points="9 13.93 4.75 11.46 9 9.01" transform="translate(-1.15)" style="fill:#9cebff"/><polygon id="polygon56525" points="9 13.93 13.25 11.46 9 9.01" transform="translate(-1.15)" style="fill:#50e6ff"/><metadata id="metadata56527"/></svg>