<svg xmlns="http://www.w3.org/2000/svg" xmlns:v="https://vecta.io/nano" width="96" height="96" fill="none"><style>.B{color-interpolation-filters:sRGB}.C{flood-opacity:0}</style><g clip-path="url(#J)"><mask id="A" width="96" height="96" x="0" y="0" mask-type="alpha" maskUnits="userSpaceOnUse"><path fill="url(#F)" d="M64 4.023c0-3.47 4.115-5.294 6.686-2.964l24 21.75A4 4 0 0 1 96 25.773V80a4 4 0 0 1-4 4H64V4.023z"/><path fill="url(#F)" d="M32 16a4 4 0 0 1 4-4h28v72H32v7.977c0 3.47-4.115 5.294-6.686 2.964l-24-21.75A4 4 0 0 1 0 70.227V28a4 4 0 0 1 4-4h28v-8z"/></mask><g mask="url(#A)"><path fill="url(#G)" d="M64 4.023c0-3.47 4.115-5.294 6.686-2.964l24 21.75A4 4 0 0 1 96 25.773V80a4 4 0 0 1-4 4H64V4.023z"/><g filter="url(#B)"><path fill="#000" fill-opacity=".32" d="M32 18a4 4 0 0 1 4-4h28v72H32V18z"/></g><g filter="url(#C)"><path fill="#000" fill-opacity=".24" d="M32 16.38a4 4 0 0 1 4-4h28v72H32v-68z"/></g><path fill="url(#H)" d="M32 16a4 4 0 0 1 4-4h28v72H32V16z"/><g filter="url(#D)"><path fill="#000" fill-opacity=".32" d="M0 30a4 4 0 0 1 4-4h28v67.977c0 3.47-4.115 5.294-6.686 2.964l-24-21.75A4 4 0 0 1 0 72.227V30z"/></g><g filter="url(#E)"><path fill="#000" fill-opacity=".24" d="M0 28.38a4 4 0 0 1 4-4h28v67.977c0 3.47-4.115 5.294-6.686 2.964l-24-21.75A4 4 0 0 1 0 70.607V28.38z"/></g><path fill="url(#I)" d="M0 28a4 4 0 0 1 4-4h28v67.977c0 3.47-4.115 5.294-6.686 2.964l-24-21.75A4 4 0 0 1 0 70.227V28z"/></g></g><defs><filter id="B" width="48" height="88" x="24" y="6" class="B" filterUnits="userSpaceOnUse"><feFlood class="C"/><feBlend in="SourceGraphic"/><feGaussianBlur stdDeviation="4"/></filter><filter id="C" width="33.52" height="73.52" x="31.24" y="11.62" class="B" filterUnits="userSpaceOnUse"><feFlood class="C"/><feBlend in="SourceGraphic"/><feGaussianBlur stdDeviation=".38"/></filter><filter id="D" width="48" height="87.985" x="-8" y="18" class="B" filterUnits="userSpaceOnUse"><feFlood class="C"/><feBlend in="SourceGraphic"/><feGaussianBlur stdDeviation="4"/></filter><filter id="E" width="33.52" height="73.505" x="-.76" y="23.62" class="B" filterUnits="userSpaceOnUse"><feFlood class="C"/><feBlend in="SourceGraphic"/><feGaussianBlur stdDeviation=".38"/></filter><linearGradient id="F" x1="1.5" x2="20.369" y1=".639" y2="109.925" href="#K"><stop stop-color="#c3f488"/><stop offset="1" stop-color="#8fdc50"/></linearGradient><linearGradient id="G" x1="61" x2="96.5" y1="-1.5" y2="84.5" href="#K"><stop stop-color="#158915"/><stop offset="1" stop-color="#065f18"/></linearGradient><linearGradient id="H" x1="32" x2="65.963" y1="12" y2="83.062" href="#K"><stop stop-color="#6ad116"/><stop offset="1" stop-color="#34a117"/></linearGradient><linearGradient id="I" x1=".5" x2="32.5" y1="24.5" y2="101.5" href="#K"><stop stop-color="#c3f488"/><stop offset="1" stop-color="#8fdc50"/></linearGradient><clipPath id="J"><path fill="#fff" d="M0 0h96v96H0z"/></clipPath><linearGradient id="K" gradientUnits="userSpaceOnUse"/></defs></svg>