<svg xmlns="http://www.w3.org/2000/svg" xmlns:svg="http://www.w3.org/2000/svg" id="svg66801" width="18.001" height="10.421" version="1.1" viewBox="0 0 18.001 10.421"><defs id="defs66782"><linearGradient id="ee395d7d-9e11-4093-b455-9b6ca9e15a63" x1="7.699" x2="7.699" y1="956.076" y2="960.567" gradientTransform="translate(-0.00155525,-946.2057)" gradientUnits="userSpaceOnUse"><stop id="stop66772" offset=".23" stop-color="#5ea0ef"/><stop id="stop66774" offset=".93" stop-color="#127fd9"/></linearGradient><linearGradient id="b8105328-c2c4-4923-8d18-6c844e8a389e" x1="9.927" x2="9.927" y1="957.947" y2="962.438" gradientTransform="translate(-0.00155525,-946.2057)" gradientUnits="userSpaceOnUse"><stop id="stop66777" offset=".02" stop-color="#5ea0ef"/><stop id="stop66779" offset=".93" stop-color="#127fd9"/></linearGradient></defs><g id="a5229e7a-2c78-4db9-99cc-ca7fbe64368b" transform="translate(0.00155525,-3.7943041)"><g id="g66796"><path id="path66784" d="m 8.588,6.076 h -1.8 A 2.246,2.246 0 0 0 6.44,10.537 2.409,2.409 0 0 1 6.466,9.7 1.418,1.418 0 0 1 6.792,6.9 h 1.8 a 1.422,1.422 0 0 1 0,2.844 H 8.094 a 1.07,1.07 0 0 0 -0.1,0.449 1.018,1.018 0 0 0 0.071,0.374 h 0.527 a 2.246,2.246 0 1 0 0,-4.491 z" style="fill:url(#ee395d7d-9e11-4093-b455-9b6ca9e15a63)"/><path id="path66786" d="m 11.182,7.977 a 2.644,2.644 0 0 1 0.026,0.345 2.308,2.308 0 0 1 -0.049,0.49 1.418,1.418 0 0 1 -0.325,2.8 h -1.8 a 1.422,1.422 0 0 1 0,-2.844 H 9.528 A 1.045,1.045 0 0 0 9.628,8.319 1.028,1.028 0 0 0 9.557,7.944 h -0.52 a 2.246,2.246 0 0 0 0,4.491 h 1.8 a 2.246,2.246 0 0 0 0.348,-4.461 z" style="fill:url(#b8105328-c2c4-4923-8d18-6c844e8a389e)"/><path id="path66788" d="m 5.58,13.381 -0.412,0.416 a 0.282,0.282 0 0 1 -0.4,0 L 0.164,9.2 a 0.566,0.566 0 0 1 0,-0.8 l 0.416,-0.408 5,4.993 a 0.276,0.276 0 0 1 0,0.391 v 0 z" style="fill:#50e6ff"/><path id="path66790" d="m 5.082,3.876 0.46,0.46 a 0.282,0.282 0 0 1 0,0.4 L 0.625,9.665 0.164,9.209 a 0.566,0.566 0 0 1 0,-0.8 L 4.685,3.876 a 0.282,0.282 0 0 1 0.397,0 z" style="fill:#1490df"/><path id="path66792" d="m 12.417,13.707 a 0.276,0.276 0 0 1 -0.006,-0.391 v 0 h 0.006 l 5,-4.988 0.416,0.415 a 0.566,0.566 0 0 1 0,0.8 l -4.611,4.588 a 0.276,0.276 0 0 1 -0.391,0.006 v 0 l -0.006,-0.005 z" style="fill:#50e6ff"/><path id="path66794" d="m 13.311,4.205 4.525,4.536 a 0.563,0.563 0 0 1 0,0.793 l -0.461,0.46 -4.921,-4.932 a 0.287,0.287 0 0 1 0,-0.4 l 0.46,-0.457 a 0.282,0.282 0 0 1 0.397,0 z" style="fill:#1490df"/></g></g><metadata id="metadata66799"/></svg>